<?xml version="1.0" encoding="iso-8859-1"?>
<!-- Generator: Adobe Illustrator 19.0.0, SVG Export Plug-In . SVG Version: 6.00 Build 0)  -->
<svg version="1.1" id="Layer_1" xmlns="http://www.w3.org/2000/svg" xmlns:xlink="http://www.w3.org/1999/xlink" x="0px" y="0px"
	 viewBox="0 0 512 512" style="enable-background:new 0 0 512 512;" xml:space="preserve">
<g>
	<g>
		<path d="M447.995,128c-5.888,0-10.667,4.779-10.667,10.667v352H111.377c-25.365,0-36.715-21.419-36.715-42.667V85.333
			c0-5.888-4.779-10.667-10.667-10.667s-10.667,4.779-10.667,10.667V448c0,37.077,24.405,64,58.048,64h336.619
			c5.888,0,10.667-4.779,10.667-10.667V138.667C458.662,132.779,453.883,128,447.995,128z"/>
	</g>
</g>
<g>
	<g>
		<path d="M455.547,18.219c3.051-3.051,3.968-7.637,2.304-11.627C456.209,2.603,452.305,0,447.995,0H122.043
			C85.435,0,53.329,29.909,53.329,64v21.333c0,34.091,32.107,64,68.715,64h48.619c5.888,0,10.667-4.779,10.667-10.667
			S176.55,128,170.662,128h-48.619c-24.789,0-47.381-20.331-47.381-42.667V64c0-22.336,22.592-42.667,47.381-42.667h305.664
			c-15.104,30.528-15.104,76.139,0,106.667H298.662c-5.888,0-10.667,4.779-10.667,10.667s4.779,10.667,10.667,10.667h149.333
			c4.309,0,8.213-2.603,9.856-6.571c1.664-3.989,0.747-8.576-2.304-11.627C431.803,107.392,431.803,41.963,455.547,18.219z"/>
	</g>
</g>
<g>
	<g>
		<path d="M426.662,64H117.329c-5.888,0-10.667,4.779-10.667,10.667s4.779,10.667,10.667,10.667h309.333
			c5.888,0,10.667-4.779,10.667-10.667S432.55,64,426.662,64z"/>
	</g>
</g>
<g>
	<g>
		<path d="M298.662,64c-5.888,0-10.667,4.779-10.688,10.667v230.251l-45.781-45.781c-4.16-4.16-10.923-4.16-15.083,0l-45.781,45.781
			V74.667c0-5.888-4.779-10.667-10.667-10.667s-10.667,4.779-10.667,10.667v256c0,4.309,2.603,8.213,6.592,9.835
			c3.989,1.664,8.576,0.747,11.627-2.304l56.448-56.448l56.448,56.469c2.048,2.027,4.779,3.115,7.552,3.115
			c1.365,0,2.752-0.256,4.075-0.811c3.989-1.643,6.592-5.547,6.592-9.856v-256C309.329,68.779,304.55,64,298.662,64z"/>
	</g>
</g>
<g>
</g>
<g>
</g>
<g>
</g>
<g>
</g>
<g>
</g>
<g>
</g>
<g>
</g>
<g>
</g>
<g>
</g>
<g>
</g>
<g>
</g>
<g>
</g>
<g>
</g>
<g>
</g>
<g>
</g>
</svg>
