<svg xmlns="http://www.w3.org/2000/svg" width="52" height="48" viewBox="0 0 52 48">
  <metadata><?xpacket begin="﻿" id="W5M0MpCehiHzreSzNTczkc9d"?>
<x:xmpmeta xmlns:x="adobe:ns:meta/" x:xmptk="Adobe XMP Core 5.6-c138 79.159824, 2016/09/14-01:09:01        ">
   <rdf:RDF xmlns:rdf="http://www.w3.org/1999/02/22-rdf-syntax-ns#">
      <rdf:Description rdf:about=""/>
   </rdf:RDF>
</x:xmpmeta>
                                                                                                    
                                                                                                    
                                                                                                    
                                                                                                    
                                                                                                    
                                                                                                    
                                                                                                    
                                                                                                    
                                                                                                    
                                                                                                    
                                                                                                    
                                                                                                    
                                                                                                    
                                                                                                    
                                                                                                    
                                                                                                    
                                                                                                    
                                                                                                    
                                                                                                    
                                                                                                    
                           
<?xpacket end="w"?></metadata>
<defs>
    <style>
      .cls-1 {
        fill-rule: evenodd;
      }
    </style>
  </defs>
  <path class="cls-1" d="M51.705,14.31c-0.753-8.3-6.619-14.316-13.96-14.316A13.873,13.873,0,0,0,25.858,6.852a13.37,13.37,0,0,0-11.6-6.859C6.914-.007,1.047,6.013.3,14.309A14.778,14.778,0,0,0,.734,19.75,23.341,23.341,0,0,0,7.875,31.681l17.97,16.326L44.124,31.682A23.344,23.344,0,0,0,51.266,19.75,14.813,14.813,0,0,0,51.705,14.31Zm-2.371,4.985A21.347,21.347,0,0,1,42.8,30.2L26.767,44.5h0V9.443A11.985,11.985,0,0,1,37.747,1.98c6.3,0,11.342,5.277,12,12.64A12.9,12.9,0,0,1,49.335,19.295Z"/>
</svg>
