<svg xmlns="http://www.w3.org/2000/svg" width="52" height="48" viewBox="0 0 52 48">
  <metadata><?xpacket begin="﻿" id="W5M0MpCehiHzreSzNTczkc9d"?>
<x:xmpmeta xmlns:x="adobe:ns:meta/" x:xmptk="Adobe XMP Core 5.6-c138 79.159824, 2016/09/14-01:09:01        ">
   <rdf:RDF xmlns:rdf="http://www.w3.org/1999/02/22-rdf-syntax-ns#">
      <rdf:Description rdf:about=""/>
   </rdf:RDF>
</x:xmpmeta>
                                                                                                    
                                                                                                    
                                                                                                    
                                                                                                    
                                                                                                    
                                                                                                    
                                                                                                    
                                                                                                    
                                                                                                    
                                                                                                    
                                                                                                    
                                                                                                    
                                                                                                    
                                                                                                    
                                                                                                    
                                                                                                    
                                                                                                    
                                                                                                    
                                                                                                    
                                                                                                    
                           
<?xpacket end="w"?></metadata>
<defs>
    <style>
      .cls-1 {
        fill-rule: evenodd;
      }
    </style>
  </defs>
  <path id="Forma_1" data-name="Forma 1" class="cls-1" d="M51.7,14.309c-0.753-8.3-6.619-14.316-13.96-14.316A13.873,13.873,0,0,0,25.856,6.851a13.37,13.37,0,0,0-11.6-6.859C6.913-.008,1.046,6.011.294,14.308a14.779,14.779,0,0,0,.438,5.441A23.341,23.341,0,0,0,7.874,31.679l17.97,16.326,1.067-.952,0.028,0.009,0.016-.049L44.123,31.681A23.344,23.344,0,0,0,51.264,19.75,14.819,14.819,0,0,0,51.7,14.309ZM25.524,45.033L9.207,30.208A21.361,21.361,0,0,1,2.664,19.293a12.913,12.913,0,0,1-.413-4.669l0.015-.1C2.911,7.255,7.951,1.978,14.253,1.978A11.629,11.629,0,0,1,24.937,9.442L25,9.6l-8.068,8.077L31.7,19.643,20.4,30.015l8.38,5.243ZM49.333,19.294A21.347,21.347,0,0,1,42.8,30.2L28.216,43.227,31.154,34.4l-7.493-4.689L36.169,18.236l-14.994-2,4.659-4.664,0.017,0.039,0.041-.1L26.7,10.7l-0.329-.33,0.393-.933A11.984,11.984,0,0,1,37.744,1.978c6.3,0,11.342,5.277,12,12.64A12.86,12.86,0,0,1,49.333,19.294Z"/>
</svg>
