<svg xmlns="http://www.w3.org/2000/svg" width="52" height="48" viewBox="0 0 52 48">
  <metadata><?xpacket begin="﻿" id="W5M0MpCehiHzreSzNTczkc9d"?>
<x:xmpmeta xmlns:x="adobe:ns:meta/" x:xmptk="Adobe XMP Core 5.6-c138 79.159824, 2016/09/14-01:09:01        ">
   <rdf:RDF xmlns:rdf="http://www.w3.org/1999/02/22-rdf-syntax-ns#">
      <rdf:Description rdf:about=""/>
   </rdf:RDF>
</x:xmpmeta>
                                                                                                    
                                                                                                    
                                                                                                    
                                                                                                    
                                                                                                    
                                                                                                    
                                                                                                    
                                                                                                    
                                                                                                    
                                                                                                    
                                                                                                    
                                                                                                    
                                                                                                    
                                                                                                    
                                                                                                    
                                                                                                    
                                                                                                    
                                                                                                    
                                                                                                    
                                                                                                    
                           
<?xpacket end="w"?></metadata>
<defs>
    <style>
      .cls-1 {
        fill-rule: evenodd;
      }
    </style>
  </defs>
  <path id="Forma_1" data-name="Forma 1" class="cls-1" d="M7.7,31.9A23.993,23.993,0,0,1,.529,19.737a14.472,14.472,0,0,1-.441-5.411C0.768,6.544,6.178.013,13.689,0.013A12.838,12.838,0,0,1,24.665,6.318L24.644,6.3,16.914,17.826l15.065,2.042L20.132,30.906l8.784,5.58-3.771,11.5ZM51.476,19.74A23.99,23.99,0,0,1,44.3,31.9L27.666,46.982l3.741-11.407-7.854-4.99L36.664,18.371,20.533,16.186l5.576-8.312a0.418,0.418,0,0,0,.137-0.151A13.536,13.536,0,0,1,38.315.014c7.511,0,12.921,6.531,13.6,14.314A14.433,14.433,0,0,1,51.476,19.74Z"/>
</svg>
