<?xml version="1.0" encoding="utf-8"?>
<!-- Generator: Adobe Illustrator 21.0.2, SVG Export Plug-In . SVG Version: 6.00 Build 0)  -->
<svg version="1.1" id="Capa_1" xmlns="http://www.w3.org/2000/svg" xmlns:xlink="http://www.w3.org/1999/xlink" x="0px" y="0px"
	 width="511px" height="447px" viewBox="0 0 511 447" style="enable-background:new 0 0 511 447;" xml:space="preserve">
<g>
	<path d="M463.5,0h-336C101.3,0,80,21.3,80,47.5v40V352H7.5c-4.1,0-7.5,3.4-7.5,7.5v40C0,425.7,21.3,447,47.5,447h336
		c26.2,0,47.5-21.3,47.5-47.5V95h72.5c4.1,0,7.5-3.4,7.5-7.5v-40C511,21.3,489.7,0,463.5,0z M47.5,432C29.6,432,15,417.4,15,399.5
		V367h72.5c0,0,0,0,0,0s0,0,0,0H336v32.5c0,12.6,4.9,24,12.9,32.5H47.5z M416,399.5c0,17.9-14.6,32.5-32.5,32.5S351,417.4,351,399.5
		v-40c0-4.1-3.4-7.5-7.5-7.5H95V87.5v-40C95,29.6,109.6,15,127.5,15h301.4c-8,8.5-12.9,19.9-12.9,32.5v40V399.5z M496,80h-65V47.5
		c0-17.9,14.6-32.5,32.5-32.5S496,29.6,496,47.5V80z"/>
	<path d="M159.5,72h-16c-4.1,0-7.5,3.4-7.5,7.5s3.4,7.5,7.5,7.5h16c4.1,0,7.5-3.4,7.5-7.5S163.6,72,159.5,72z"/>
	<path d="M367.5,72h-176c-4.1,0-7.5,3.4-7.5,7.5s3.4,7.5,7.5,7.5h176c4.1,0,7.5-3.4,7.5-7.5S371.6,72,367.5,72z"/>
	<path d="M159.5,112h-16c-4.1,0-7.5,3.4-7.5,7.5s3.4,7.5,7.5,7.5h16c4.1,0,7.5-3.4,7.5-7.5S163.6,112,159.5,112z"/>
	<path d="M191.5,127h144c4.1,0,7.5-3.4,7.5-7.5s-3.4-7.5-7.5-7.5h-144c-4.1,0-7.5,3.4-7.5,7.5S187.4,127,191.5,127z"/>
	<path d="M159.5,152h-16c-4.1,0-7.5,3.4-7.5,7.5s3.4,7.5,7.5,7.5h16c4.1,0,7.5-3.4,7.5-7.5S163.6,152,159.5,152z"/>
	<path d="M367.5,152h-176c-4.1,0-7.5,3.4-7.5,7.5s3.4,7.5,7.5,7.5h176c4.1,0,7.5-3.4,7.5-7.5S371.6,152,367.5,152z"/>
	<path d="M159.5,192h-16c-4.1,0-7.5,3.4-7.5,7.5s3.4,7.5,7.5,7.5h16c4.1,0,7.5-3.4,7.5-7.5S163.6,192,159.5,192z"/>
	<path d="M191.5,207h160c4.1,0,7.5-3.4,7.5-7.5s-3.4-7.5-7.5-7.5h-160c-4.1,0-7.5,3.4-7.5,7.5S187.4,207,191.5,207z"/>
	<path d="M159.5,232h-16c-4.1,0-7.5,3.4-7.5,7.5s3.4,7.5,7.5,7.5h16c4.1,0,7.5-3.4,7.5-7.5S163.6,232,159.5,232z"/>
	<path d="M191.5,247h128c4.1,0,7.5-3.4,7.5-7.5s-3.4-7.5-7.5-7.5h-128c-4.1,0-7.5,3.4-7.5,7.5S187.4,247,191.5,247z"/>
	<path d="M159.5,272h-16c-4.1,0-7.5,3.4-7.5,7.5s3.4,7.5,7.5,7.5h16c4.1,0,7.5-3.4,7.5-7.5S163.6,272,159.5,272z"/>
	<path d="M367.5,272h-176c-4.1,0-7.5,3.4-7.5,7.5s3.4,7.5,7.5,7.5h176c4.1,0,7.5-3.4,7.5-7.5S371.6,272,367.5,272z"/>
	<path d="M159.5,312h-16c-4.1,0-7.5,3.4-7.5,7.5s3.4,7.5,7.5,7.5h16c4.1,0,7.5-3.4,7.5-7.5S163.6,312,159.5,312z"/>
	<path d="M343.5,312h-152c-4.1,0-7.5,3.4-7.5,7.5s3.4,7.5,7.5,7.5h152c4.1,0,7.5-3.4,7.5-7.5S347.6,312,343.5,312z"/>
</g>
</svg>
