<?xml version="1.0" encoding="utf-8"?>
<!-- Generator: Adobe Illustrator 21.0.2, SVG Export Plug-In . SVG Version: 6.00 Build 0)  -->
<svg version="1.1" id="Layer_1" xmlns="http://www.w3.org/2000/svg" xmlns:xlink="http://www.w3.org/1999/xlink" x="0px" y="0px"
	 width="111px" height="22px" viewBox="0 0 111 22" style="enable-background:new 0 0 111 22;" xml:space="preserve">
<g>
	<g>
		<path d="M4,1.3C3,2.2,2.5,3.4,2.5,4.9v2.3H0v2.6h2.5v11.9h3.3V9.8h3.4V7.3H5.8v-2c0-1.8,0.8-2.7,2.4-2.7c0.6,0,1.1,0.1,1.5,0.4
			V0.3C9.2,0.1,8.6,0,7.7,0C6.2,0,5,0.4,4,1.3z M22.3,0.5c-0.5,0-1,0.2-1.4,0.5c-0.4,0.4-0.6,0.8-0.6,1.3s0.2,1,0.6,1.3
			s0.8,0.5,1.4,0.5s1-0.2,1.4-0.5c0.4-0.4,0.6-0.8,0.6-1.3s-0.2-1-0.6-1.3S22.9,0.5,22.3,0.5z M12,21.7h3.3V0.3H12V21.7z M20.6,21.7
			h3.3V7.3h-3.3V21.7z M30.4,9.1c-1.4,1.4-2.1,3.3-2.1,5.7c0,2.1,0.7,3.9,2,5.2s3.1,2,5.2,2c1.6,0,3-0.3,4.1-1v-2.8
			c-1,0.8-2.2,1.3-3.3,1.3c-1.4,0-2.5-0.4-3.4-1.3c-0.8-0.9-1.3-2-1.3-3.5S32,12,32.9,11c0.9-0.9,2-1.4,3.4-1.4
			c1.1,0,2.2,0.4,3.2,1.1v-3C38.5,7.2,37.3,7,36,7C33.8,6.9,31.8,7.6,30.4,9.1z M62,0v22h22V7h2.5v1.9l0,0c0.9-1.5,2.1-2.2,3.7-2.2
			c1.4,0,2.5,0.5,3.3,1.5s1.2,2.3,1.2,4c0,1.8-0.4,3.3-1.3,4.4s-2.1,1.7-3.6,1.7c-1.4,0-2.5-0.6-3.2-1.8l0,0v5.6H111V0H62z M74.9,9
			h-2.6v5.5c0,0.7,0.1,1.1,0.4,1.4c0.2,0.3,0.6,0.4,1.2,0.4c0.4,0,0.8-0.1,1.1-0.4v2c-0.5,0.2-1.1,0.4-1.9,0.4c-2.1,0-3.2-1-3.2-3.1
			V9H68V7h1.8V4.5l2.5-0.7V7h2.6V9z M80.1,18h-2.5V7h2.5V18z M79.9,4.3c-0.3,0.3-0.7,0.4-1.1,0.4s-0.8-0.1-1-0.4
			c-0.3-0.3-0.4-0.6-0.4-1s0.1-0.7,0.4-1s0.6-0.4,1-0.4s0.8,0.1,1.1,0.4c0.3,0.3,0.4,0.6,0.4,1S80.2,4,79.9,4.3z M104.2,16.4
			c-0.3,0.4-0.6,0.8-1,1c-0.4,0.3-0.9,0.5-1.5,0.6s-1.2,0.2-1.8,0.2c-1.2,0-2.2-0.2-3.1-0.6v-2.3c0.9,0.7,2,1.1,3.1,1.1
			c1.5,0,2.3-0.4,2.3-1.3c0-0.3-0.1-0.5-0.2-0.6c-0.1-0.2-0.3-0.3-0.5-0.5c-0.2-0.1-0.5-0.3-0.8-0.4c-0.3-0.1-0.6-0.2-1-0.4
			c-0.5-0.2-0.9-0.4-1.2-0.6c-0.4-0.2-0.7-0.4-0.9-0.7c-0.2-0.3-0.4-0.5-0.5-0.9c-0.1-0.3-0.2-0.7-0.2-1.1c0-0.5,0.1-1,0.4-1.4
			s0.6-0.7,1-1s0.9-0.5,1.4-0.6s1.1-0.2,1.7-0.2c1,0,1.9,0.2,2.7,0.5v2.2c-0.8-0.5-1.7-0.8-2.7-0.8c-0.3,0-0.6,0-0.9,0.1
			S100,8.9,99.9,9c-0.2,0.1-0.3,0.3-0.4,0.4c-0.1,0.2-0.2,0.3-0.2,0.5s0,0.4,0.2,0.6c0.1,0.2,0.2,0.3,0.4,0.4
			c0.2,0.1,0.4,0.2,0.7,0.3c0.3,0.1,0.6,0.2,1,0.3c0.5,0.2,0.9,0.4,1.3,0.6c0.4,0.2,0.7,0.4,1,0.7s0.5,0.5,0.6,0.9
			c0.1,0.3,0.2,0.7,0.2,1.2C104.6,15.5,104.4,16,104.2,16.4z M89.2,16.3c0.9,0,1.6-0.4,2.2-1.1c0.5-0.7,0.8-1.7,0.8-3
			c0-1.1-0.2-1.9-0.7-2.5s-1.2-0.9-2-0.9c-0.9,0-1.6,0.3-2.1,0.9c-0.5,0.6-0.8,1.4-0.8,2.4v1.4c0,0.8,0.3,1.5,0.8,2
			C87.8,16,88.4,16.3,89.2,16.3z M56.5,7.3h-4l-5.3,6.6h-0.1V0.3h-3.3v21.3h3.3v-6.9h0.1l5.6,6.9H57l-6.5-7.5L56.5,7.3z"/>
	</g>
</g>
</svg>
