<svg xmlns="http://www.w3.org/2000/svg" width="40" height="40" viewBox="0 0 40 40">
  <defs>
    <style>
      .cls-1 {
        fill-rule: evenodd;
      }
    </style>
  </defs>
  <path id="vk2" class="cls-1" d="M19.556,31.9h2.39a1.964,1.964,0,0,0,1.091-.5,1.913,1.913,0,0,0,.329-1.1s-0.047-3.376,1.442-3.872c1.467-.492,3.352,3.261,5.351,4.7a3.646,3.646,0,0,0,2.659.854l5.34-.079s2.794-.18,1.47-2.491c-0.109-.19-0.772-1.712-3.972-4.836-3.35-3.269-2.9-2.74,1.135-8.4,2.455-3.445,3.439-5.548,3.13-6.45-0.291-.858-2.1-0.632-2.1-0.632l-6.014.04a1.307,1.307,0,0,0-.777.144,1.756,1.756,0,0,0-.531.679,37.551,37.551,0,0,1-2.221,4.933c-2.678,4.784-3.75,5.038-4.187,4.74-1.019-.694-0.764-2.782-0.764-4.266,0-4.636.669-6.57-1.3-7.07A9.8,9.8,0,0,0,19.218,8c-2.146-.022-3.962.007-4.99,0.538-0.686.352-1.213,1.137-.89,1.183a2.655,2.655,0,0,1,1.775.938,6.406,6.406,0,0,1,.594,2.864s0.355,5.458-.827,6.136c-0.811.466-1.924-.484-4.311-4.824a41.176,41.176,0,0,1-2.147-4.681,1.88,1.88,0,0,0-.5-0.705A2.415,2.415,0,0,0,7,9.056L1.289,9.1a1.887,1.887,0,0,0-1.174.418,1.373,1.373,0,0,0-.023,1.071S4.566,21.6,9.633,27.147C14.28,32.237,19.556,31.9,19.556,31.9Z"/>
</svg>
