<?xml version="1.0" encoding="utf-8"?>
<!-- Generator: Adobe Illustrator 21.0.2, SVG Export Plug-In . SVG Version: 6.00 Build 0)  -->
<svg version="1.1" id="Layer_1" xmlns="http://www.w3.org/2000/svg" xmlns:xlink="http://www.w3.org/1999/xlink" x="0px" y="0px"
	 width="142px" height="144px" viewBox="0 0 142 144" style="enable-background:new 0 0 142 144;" xml:space="preserve">
<style type="text/css">
	.st0{fill:#010101;}
	.st1{fill:#FFFFFF;}
	.st2{fill:#040404;}
	.st3{fill:#9C9C9C;}
	.st4{fill:#828282;}
	.st5{fill:#3D3D3D;}
	.st6{fill:#3C48B7;}
	.st7{fill:#676871;}
	.st8{fill:#AFB8F2;}
	.st9{fill:#A0A0A0;}
	.st10{fill:#40499C;}
	.st11{fill:#3746ED;}
	.st12{fill:#B8B8B8;}
	.st13{fill:#A8A9AF;}
	.st14{fill:#F6F6F6;}
	.st15{fill:#6674CC;}
	.st16{fill:#6271FD;}
	.st17{fill:#8591FB;}
	.st18{fill:#909CFD;}
	.st19{fill:#939393;}
	.st20{fill:#858585;}
	.st21{fill:#DCDCDC;}
	.st22{fill:#B5B5B5;}
	.st23{fill:#BFBFBF;}
	.st24{fill:#C7C7C7;}
	.st25{fill:#ACACAC;}
	.st26{fill:#BCBCBC;}
	.st27{fill:#C0C0C0;}
</style>
<path class="st0" d="M43.5,9.7c3.4-1.8,6.9-3.1,10.6-4.1c6.7-0.3,13.5,0,20,1.8c3.2,2.1,5.9,5.1,8.3,8.2c2.1,4.5,2.7,10,6.6,13.5
	c5.2,5.5,13.3,5.3,20,7.7c6,1.7,10.7,6,15.1,10.2c5,5.1,10.4,10.6,11.9,17.9c0.7,4,4.1,6.9,4.4,11.1c0.6,7.1,0.1,14.9-4.3,20.9
	c-3,4.3-4.9,9.2-7.6,13.6c-3.1,3.6-5.5,7.7-8.6,11.2c-2,2.2-2.1,5.3-3.4,7.8c-3.2,4.1-7.2,7.6-11.8,9.9c-4.4,1.5-9.1,1.6-13.6,2.6
	c-6.2,1.4-12.6,1.5-18.9,1.4c-6-0.1-12.2,0.5-17.8-1.7c-4.2-1.5-8.7-1.9-12.6-3.9c-3.5-1.8-7.5-3-10.4-5.9c-3.2-2.9-5.5-6.7-8-10.2
	c-2.2-2.7-4.8-5-7.2-7.6c-1.8-2-4.6-2.5-6.4-4.5c-2.6-3.2-5-6.6-7.9-9.5c-0.1-7-0.5-14.1,1-21c1.5-8.5,3.2-17.1,3-25.8
	c1.2-7.8,3-15.7,6.5-22.8c4-5.7,8.9-11.1,15.3-14.1C32.2,12.7,38,11.5,43.5,9.7 M59.6,9.3c-3.7-1-7,1.3-10.5,2.2
	C42,13.3,35,15.9,28.4,19.1c-6.9,5.3-14,11.5-15.8,20.3c-3.7,7-1.9,15.2-3.8,22.6c3.4-0.2,2.3,4.1,4.4,5.7c1.2,1.8,5.2,2.2,4.4,4.8
	c-2.1-0.9-4.1-2.3-6-3.6c-0.7-0.1-2-0.3-2.7-0.3c0.7-0.2,2.1-0.5,2.8-0.7c-1.3-1.3-1.3-3.2-1.9-4.8c-2-1.3-1.6,1.7-1.8,2.8
	c0.1,7.5-1.8,14.9-4,22c-0.8,3.3-1.3,6.9-0.1,10.1c3.2,3.7,6.6,7.4,10,10.9c6.4,5,11.1,11.6,17,17.2c2.6,3.8,7.7,4,11.8,3.1
	c-1.1-2.9-4.8-3.8-6.8-6.1c2.6,1.3,4.9,3.1,7.5,4.5c-0.8,3.7,4.8,2.7,6.7,4.5c-1.5,0.4-2.9-0.5-4.3-0.9c-3-1.3-6.4-0.7-9.6-0.8
	c3.7,3.8,9.3,4.2,13.9,6.4c3.2,1,6.2,3.1,9.7,2.9c6.3-0.1,12.7,0.2,19-0.1c6.8-1.8,14-1.4,21-2.4c5-2.5,9.3-6.2,13.9-9.2
	c0.9-4,3.3-7.4,5.8-10.5c3.1-3.9,6-8,8.6-12.2c1.9-4.2,5.1-7.9,5.7-12.6c4.9-5,3.1-12.4,3.4-18.7c-3.6-7.3-7.6-14.3-11.8-21.2
	c-3.8-3.9-8.3-7.2-12.1-11.1c-6.9-4.5-15.4-4.2-23.1-6.3c-0.8,0.5-2.5,1.4-3.3,1.8c0.3-1.1,1.1-3.2,1.4-4.3c-2-3.9-5.7-6.7-7.3-10.8
	c-0.3-0.1-1.1-0.3-1.4-0.4L79.3,23c-1.1-1.2-2.1-2.5-3.1-3.9c1.4,0.2,2.4,1,2.9,2.2c0.5-0.5,1-0.9,1.5-1.4
	c-1.9-5.7-7.7-7.9-11.6-11.9C65.8,7.9,62.6,8.2,59.6,9.3z"/>
<path class="st1" d="M59.6,9.3c3-1.1,6.2-1.4,9.4-1.2c3.8,4,9.6,6.2,11.6,11.9c-0.5,0.5-1,0.9-1.5,1.4c-0.5-1.3-1.5-2-2.9-2.2
	c0.9,1.4,2,2.6,3.1,3.9l0.4-1.4c0.3,0.1,1.1,0.3,1.4,0.4c1.6,4.1,5.3,6.9,7.3,10.8C88,33.9,87.3,36,87,37.1c0.8-0.5,2.5-1.4,3.3-1.8
	c7.7,2,16.3,1.7,23.1,6.3c3.8,4,8.3,7.2,12.1,11.1c4.2,6.9,8.2,14,11.8,21.2c-0.3,6.3,1.5,13.7-3.4,18.7c-0.5,4.7-3.8,8.4-5.7,12.6
	c-2.6,4.2-5.4,8.3-8.6,12.2c-2.5,3.1-4.9,6.5-5.8,10.5c-4.7,3-9,6.7-13.9,9.2c-7,0.9-14.1,0.6-21,2.4c-6.3,0.3-12.7,0-19,0.1
	c-3.5,0.3-6.5-1.9-9.7-2.9c-4.6-2.1-10.2-2.6-13.9-6.4c3.2,0,6.5-0.5,9.6,0.8c1.4,0.4,2.8,1.3,4.3,0.9c-2-1.9-7.5-0.8-6.7-4.5
	c-2.6-1.3-4.9-3.2-7.5-4.5c2,2.3,5.7,3.2,6.8,6.1c-4,1-9.2,0.8-11.8-3.1c-5.9-5.6-10.6-12.2-17-17.2c-3.4-3.5-6.8-7.1-10-10.9
	C2.8,94.9,3.3,91.2,4,87.9c2.2-7.1,4.1-14.5,4-22c0.2-1.2-0.2-4.1,1.8-2.8c0.6,1.6,0.6,3.5,1.9,4.8c-0.7,0.2-2.1,0.5-2.8,0.7
	c0.7,0.1,2,0.3,2.7,0.3c1.9,1.3,3.9,2.7,6,3.6c0.8-2.6-3.2-3-4.4-4.8c-2.1-1.6-1.1-5.9-4.4-5.7c1.9-7.5,0.1-15.6,3.8-22.6
	c1.8-8.9,9-15.1,15.8-20.3c6.7-3.2,13.6-5.8,20.8-7.7C52.6,10.6,55.9,8.3,59.6,9.3 M53.9,21.3c2.7-0.6,4.2-3.2,6.8-4.2
	c0.2-0.3,0.7-1,1-1.3C58.6,16.8,56.3,19.2,53.9,21.3 M61.8,19.3c-2.3,3.7-5.8,7-10.3,7.5c1.3-2.4,4.5-2.6,5.7-5.1
	c-3,1.5-5.6,4.2-9.2,3.8c-3.1,0.2-6.5-1.4-9.5-0.1c4,0,7.7,1.1,11.5,2.2c5.9,0.1,9.9-4.7,13.7-8.5C63.2,19.2,62.3,19.3,61.8,19.3
	 M50.1,21.5c-4.8,0.3-10.6-1.4-14.3,2.7c4.7-2.6,10.1-1.6,15.3-2c0.3-0.4,0.8-1.2,1.1-1.6C51.6,20.7,50.6,21.2,50.1,21.5 M66.5,25.4
	c-2.4,2.2-5,5.9-3.2,9.2c0.1-1,0.3-3,0.4-4l1.9-0.4c0.5,1.6-0.9,4.4,1.2,5.1c0.3-0.4,0.8-1.1,1.1-1.5c0.1,1.3,0.6,2.5,1.4,3.6
	c-0.4,0.6-1.2,1.7-1.6,2.3c3,2.5,7.4,1.5,10.9,0.9c3.4,0.3,6.9,0.1,10.3,0.1l-1.1,1.9c-7-1-13.8,2.4-20.8,0.8
	c-1.8-1.3-3.5-3.6-6-2.7c0.9,0.7,1.8,1.3,2.8,1.9c0.1,0.7,0.2,2,0.3,2.6c-1.7-0.8-4-1.8-3.5,1.3c0.9-0.1,2.8-0.3,3.8-0.3
	c-0.5,0.3-1.5,0.8-2,1.1c-0.2,0.9-0.5,1.9-0.7,2.8c1,2.8,3.1,5.2,3,8.3c-1.7-0.5-3.4-1.2-5,0c-0.2-0.5-0.5-1.6-0.6-2.2
	c-0.3,0.8-0.7,1.7-1,2.5c-0.4-0.5-1.3-1.6-1.7-2.2c-0.8,0.9-1.7,1.7-2.8,2.2c-0.3-0.9-0.6-1.8-0.9-2.7c-0.1,0.6-0.2,1.8-0.3,2.4
	c-1.4-0.3-2.8-0.6-4.3-0.8l0.5-1.9c-0.7,0.6-1.4,1.3-2.1,1.9c-2-1-4.2-0.8-6.3-0.5c3.8-3.3,8.3-5.5,12.2-8.6c1.7,1.9,4.1,1,5.5-0.8
	L57.1,50c0.7-0.2,2-0.7,2.7-0.9c-0.9-1.2-1.5-2.6-2.2-4c-1.8,0.7-1.8,3.3-3.9,3.7c-0.2-2.8,1.6-5.1,2.4-7.6
	c-1.6,1.5-3.8,2.9-3.7,5.3c-2.5,3.8-7.3,5.4-10.4,8.7c-1-0.7-1.9-1.4-2.8-2.1l0.9-1.3c0.4,0.2,1.2,0.7,1.6,0.9
	c3.7-3.3,7.1-7.1,9.1-11.7c-1.1,0.6-2.2,1.2-3.3,1.9c-0.3-3.2-0.8-6.4-0.7-9.6c-0.9-1-1.7-2.1-2.7-3c-2.4,0.4-4.8,1.1-7,2.2
	c0.5,0.5,1.1,0.9,1.6,1.4c-0.8,0.4-2.3,1.1-3,1.5c-0.5,3.3-1.2,6.6,0.5,9.6l-2.4-0.8c0.9,1.4,1.9,2.8,2.9,4.2
	c-0.1-1.1-0.3-3.4-0.4-4.6l1.4,0.3c-0.9,1.8-0.4,2.9,1.4,3.2c-0.3-0.5-0.9-1.6-1.2-2.1c1.3,0.1,2.7,0.1,4,0.2l-0.5,0.8l-0.7,0.3
	c0.2,1.6,0.2,3.2,0.3,4.8c-1.9,0.2-3.8,0-5.7,0c-1-0.9-2-1.8-3-2.5c0.9,1.5,2,3,2.8,4.6c1.3,0,2.6,0,3.9,0c-1.9,3-1.6,6.6-1.2,10
	c1-1.5,0.7-3.3,0.6-5c1.5,1.1,2.8,3,4.8,3.1c5.7-0.1,11.4,1.2,17.1,0c-0.5,0.7-1.6,2.2-2.2,2.9c1.3-0.9,2.6-1.8,3.8-2.7
	c-0.2,1.3-0.5,3.8-0.6,5.1c0.7-1.4,1.2-2.9,1.6-4.4c1.5,0.5,2.8,1.1,4.3,1.4c2.3-0.4,4.5-1.3,6.9-0.7c0.3-0.2,0.9-0.5,1.2-0.7
	l0.3,0.6c0.1,0.3,0.3,0.9,0.5,1.2l1-1c1.1,0.8,2.1,1.6,3.2,2.3c-0.6-1.5-1.8-2.4-2.9-3.4c0.1-0.2,0.2-0.6,0.3-0.8l2.7-0.8
	c0.1,0.5,0.3,1.5,0.3,2.1c1,0.7,1.9,1.4,2.9,2.1c-0.7-1.6-1.7-3.1-3-4.3c2.5-0.4,5.1-0.3,7.5-1.2c1.6-1,2.8-2.4,4.3-3.6
	c0,1.6,0.5,3.1,1.4,4.4c-2.2,2.6-5.2,4.3-7.8,6.4c-0.9,0.4-1.9,0.8-2.8,1.1c-2.8,0.9-5.4,2.3-8,3.6c-2.4,0.1-5.6,0.9-6.6-2.1
	c0,0.7,0,2,0,2.6c-6.3-1.2-12.1-4.7-18.6-4.9c8.3,2.2,16.4,6.9,25.3,5.2c3.2-1.3,6.2-3.1,9.6-3.9c2.4-1.6,4.7-3.2,7-4.9
	c0.5,1.5,1,3,1.4,4.5c-2.7,0.3-5.3,0.8-7.9,1.3c0,0.3,0,0.8,0.1,1c2.5-0.8,5.2-1,7.7-1.9c-1.5,3.6-1.8,7.6-1.8,11.5
	c0.5,0,1.6,0,2.2,0c-1.3-4.5,0.5-8.8,1.5-13.1c1.3-1.2,2.5-2.4,3.7-3.6c0.9-2.1,2.5-3.9,2.5-6.3c-2,4-4.3,7.7-7.8,10.5
	c-0.3-1.4-0.6-2.9-0.9-4.4c2.6-2.9,5.8-5.4,6.9-9.4c0.8-1.2,1.5-2.4,2.1-3.7c-3.9,2.2-3,7.9-7.4,9.5c-0.4-1.3-0.8-2.5-1.1-3.8
	c1.4-1.3,2.8-2.8,4-4.3l-0.2-0.1l0.7-1c2.1-1.9,3.6-5,6-7c1.8,1.9,3.8,3.8,3.5,6.7c0.6,2.9-1.7,5.7-0.6,8.4c0.9-4.2,2.5-9,0.2-13
	c-0.8-0.9-1.5-1.8-2.2-2.6c-2.6-1.2-5.1-2.9-8.1-3c-3.7,0-7.5-0.3-11.2,0.3l-1.3,0c-1.6-0.3-3.2-0.6-4.8-0.9c-0.2-1.2-0.8-2-1.9-2.3
	c0.3-0.8,0.6-1.6,0.9-2.4c1.9-1,3.6-2.7,2.2-4.9c-0.5,0.3-1.5,1-2,1.3l-1.4,0.9c0.1-1.7-1.2-2.5-2.3-3.5c-1.4,0-2.8,0.3-4.2,0.8
	l0-1.3c-2.4-0.4-3.7,2.8-6.1,2.5c1.6-3.2,4.9-4.8,8.3-5.1C70.4,24.1,68,23.7,66.5,25.4 M23.3,28.8c2.5,2,3,5.1,2.2,8.1
	c0.7-0.6,1.3-1.2,2-1.8c0-1.2-0.1-2.4-0.1-3.6C26.1,30.4,24.9,29.1,23.3,28.8 M31.6,31.9c0.6,1.9,4.1,0.2,3-1.5
	C33.6,29.7,31.8,30.7,31.6,31.9 M53.1,31c0.9,1.8,2.1,3.6,3.3,5.2c0,0.7-0.1,2.2-0.2,2.9c0.6-0.6,1.2-1.1,1.8-1.7l1.1,1.5
	C57.7,36.1,55.9,32.8,53.1,31 M30.3,39.6c-0.8,1.1-1.6,2.3-2.3,3.4c1.4-0.7,2.8-1.4,4.2-2.1c0.2-0.4,0.5-1.1,0.7-1.5
	C32.3,39.5,31,39.6,30.3,39.6 M58.1,42.3c-0.6,1.6,0,2.2,1.6,1.6C60.3,42.3,59.8,41.7,58.1,42.3 M14.3,52.9c2.2-1.4,4.2-3.1,6-5
	C17.8,48.8,15.4,50.4,14.3,52.9 M37.5,48.8c0.3,0.3,1,0.9,1.3,1.2c0.8-0.8,0.7-1.6-0.3-2.3C38.3,47.9,37.8,48.5,37.5,48.8 M31.2,62
	c-2.8,4,1.8,7.8,5.3,9.2c-0.5-0.9-1.2-1.6-2-2.2c-1.3-1-3.4-1.9-3.4-3.8c0.6-2.8,1.8-5.6,1.6-8.5C31.7,58.3,31.5,60.1,31.2,62
	 M38.8,62.1c2.5,3.3,6.2,5.4,10.3,5.7C45.1,66.7,42.3,63.7,38.8,62.1 M98.1,66.7c1.4,0.7,3.3-1.2,2.6-2.6
	C99.4,63.2,97.5,65.4,98.1,66.7 M39,65.5c0,0.4,0,1.3,0,1.8c-0.5-0.1-1.6-0.3-2.1-0.4c1.4,1.1,3,2.1,4.2,3.4
	c-0.5,4.6,1.1,9.1,1.1,13.6c0.5,0.1,1.5,0.4,2,0.6c-0.1-4.4-2-8.5-1.8-12.9c0.4,0.4,1.3,1.2,1.8,1.6c-0.8-1.5-1.8-2.9-2.9-4.2
	C42.1,67.9,40.5,64.4,39,65.5 M116.7,65.1c-0.1,1.8-0.3,3.6-1.4,5c-3.3,5.1-7.2,10-8.6,16c-1.6,4.7-4.8,9.1-4.2,14.3
	c1-4.7,2.8-9.1,4.7-13.5c1.5-8.2,8.6-13.7,10.7-21.7C117.6,65.2,117,65.2,116.7,65.1 M9.6,72c2.7,1.1,5.2,2.3,6,5.3
	c0.4-1.1,0.8-2.1,1.3-3.2C14.7,72.8,12.1,72.3,9.6,72 M46.7,71.9c1.2,3.3,5.3,3.8,8.1,5.2c1.9,1.2,4-0.1,5.7-1
	C55.4,77.9,50.5,75,46.7,71.9 M104.2,72.2C104.7,72.8,104.7,72.8,104.2,72.2 M21.5,78.7c0.1-0.8,0.4-2.6,0.6-3.4l1,0
	c-0.1,2.5-0.3,5-0.7,7.5c0.2,0,0.7-0.1,1-0.1c0.3-3.3,1-6.8-1.2-9.6C21.6,74.9,20.8,76.8,21.5,78.7 M133.6,75.1
	c-0.5,1.5-0.1,3.4,0.8,4.6C136.3,79.5,135.4,74.8,133.6,75.1 M103.1,78.2C101.5,81.2,106.4,78.4,103.1,78.2 M8.2,85
	c0.9,2.1,4.9-1.2,2.9-2.4C9.9,82.8,8.4,83.7,8.2,85 M84.1,83.1c-0.5,1.6,0.1,2.2,1.7,1.6C86.3,83.1,85.8,82.6,84.1,83.1 M67.2,84.2
	C67.8,84.7,67.8,84.7,67.2,84.2 M10.4,88.3c-1.6,1.3-3.6,2.3-4.1,4.5c2.6-2.9,6.3-4.7,8.6-7.9C12.9,85.4,11.9,87.2,10.4,88.3
	 M39.3,85.9c0.7,1.6,1.3,3.6,3.4,3.8l-0.2,0.9l0.8-0.2c3.3,7.8,8.7,14.6,14.4,20.7c-1.5-3-4.1-5.3-5.9-8c-2.9-3.8-5.4-7.9-7.7-12
	c0.2-1,0.5-1.9,0.7-2.9c-1,0.3-2,0.6-3,0.9C41,88,40.2,86.9,39.3,85.9 M64.3,89.2C64.5,92.5,67.3,87.6,64.3,89.2 M111.2,90.1
	C111.2,93.5,114.2,88.7,111.2,90.1 M8.8,100c3-2.7,6.4-5,9.1-8C14.2,93.6,11.1,96.7,8.8,100 M23.8,92.9c0.4,0.6,1.1,1.9,1.4,2.5
	c0.9,2.8,1.1,5.7,0.7,8.6c-0.7-1.1-1.4-2.3-2-3.5c-0.1,0-0.3-0.1-0.4-0.1c-0.5,4.7-2.4,10.6,1.6,14.3c2.3,1.8,4.1,4.4,6.9,5.4
	c-2.5-3.3-6.9-4.9-8.4-9c-0.2-2.8-0.1-5.6,0.3-8.3c0.7,1.3,1.4,2.7,2,4.1C26.6,102.3,28.4,95.9,23.8,92.9 M97.2,94.2
	C97.8,94.7,97.8,94.7,97.2,94.2 M73.1,100.2C73.4,103.6,76,98.6,73.1,100.2 M55.1,101.3C53.5,104.3,58.4,101.5,55.1,101.3
	 M67.7,102.5c2.5,0.8,5.2,1.1,7.7,2.1C73.3,102.5,70.4,102.2,67.7,102.5 M84.1,109.2c0-2,1.5-3.2,2.8-4.4
	C85.2,105.3,82,107.5,84.1,109.2 M27,108.8c1.1,6.6,7.7,10.4,13.1,13.3c-2-2.1-4.5-3.6-6.9-5.2C30.4,114.8,28.7,111.7,27,108.8
	 M83.3,110.8c0.6,4.3,2.1,8.6,0.9,13c-1,3.6-3.2,6.6-4.4,10.1c0.4-0.3,1.1-0.8,1.5-1c1.3-4,4-7.6,3.9-11.9
	C85.7,117.5,84.9,114,83.3,110.8 M43.3,112.1C43.6,115.4,46.3,110.4,43.3,112.1 M99.3,133.6c-4.9-0.2-9.6,2-14.6,0.8
	c4.9,3,10.2-0.9,15.4,0c1.4-1.7,2.8-3.3,3.8-5.3C102.4,130.6,101.3,132.8,99.3,133.6 M57.1,133.2c1.9,1.5,4.2,2.5,6.4,3.6
	c4.3,0,9.2,1.1,13-1.5c-3.4,0.6-6.9,1.3-10.4,0.9C62.8,136,60.2,133.8,57.1,133.2z"/>
<path class="st2" d="M53.9,21.3c2.3-2.1,4.7-4.5,7.7-5.5c-0.3,0.3-0.7,1-1,1.3C58.2,18.1,56.6,20.8,53.9,21.3z"/>
<path class="st2" d="M61.8,19.3c0.5,0,1.4-0.1,1.9-0.1c-3.8,3.8-7.8,8.6-13.7,8.5c-3.8-1.1-7.5-2.2-11.5-2.2c3-1.4,6.3,0.3,9.5,0.1
	c3.6,0.5,6.2-2.3,9.2-3.8c-1.2,2.5-4.4,2.7-5.7,5.1C56,26.3,59.5,23,61.8,19.3 M49.3,26C49.4,29.3,52.3,24.4,49.3,26z"/>
<path class="st2" d="M50.1,21.5c0.5-0.3,1.5-0.8,2-1c-0.3,0.4-0.8,1.2-1.1,1.6c-5.2,0.4-10.5-0.6-15.3,2
	C39.5,20,45.2,21.8,50.1,21.5z"/>
<path class="st2" d="M66.5,25.4c1.5-1.6,3.9-1.2,5.9-1c-3.4,0.4-6.7,1.9-8.3,5.1c-0.1,0.3-0.3,0.8-0.4,1c-0.1,1-0.3,3-0.4,4
	C61.5,31.2,64.1,27.5,66.5,25.4z"/>
<path class="st1" d="M49.3,26C52.3,24.4,49.4,29.3,49.3,26z"/>
<path class="st3" d="M64.1,29.5c2.4,0.3,3.7-2.9,6.1-2.5l0,1.3c-0.8,0.9-1.6,1.7-2.4,2.6c0,0.7,0.1,2.2,0.1,2.9
	c-0.3,0.4-0.8,1.1-1.1,1.5c-2.1-0.7-0.7-3.5-1.2-5.1l-1.9,0.4C63.8,30.3,64,29.8,64.1,29.5 M66.3,30.2
	C66.9,30.8,66.9,30.8,66.3,30.2z"/>
<path d="M70.1,28.3c1.3-0.5,2.7-0.7,4.2-0.8c1.1,0.9,2.5,1.8,2.3,3.5L78,30c-1.1,1.1-2,2.4-2.5,3.9l2.3-0.3
	c-0.3,0.8-0.5,1.6-0.9,2.4l-0.1,0.3c-1.6-1.3-3.2-2.6-4.9-3.7l-0.6-0.8c0.7-0.1,2.2-0.3,2.9-0.4c-0.1-0.4-0.3-1.1-0.4-1.5
	c-1.2,0.5-2.4,1-3.6,1.5c0.2,1.3,0.5,2.6,0.8,3.9c1.1,0.8,2.3,1.5,3.5,2.2c-1.3,0.6-2.5,1.1-3.8,1.7l-0.2,0.1
	c-0.3-0.5-0.8-1.4-1.1-1.9c-0.8-1.1-1.3-2.3-1.4-3.6c0-0.7-0.1-2.2-0.1-2.9C68.6,30,69.3,29.1,70.1,28.3z"/>
<path class="st2" d="M23.3,28.8c1.7,0.3,2.8,1.6,4.1,2.6c0,1.2,0.1,2.4,0.1,3.6c-0.7,0.6-1.3,1.2-2,1.8
	C26.3,33.9,25.8,30.8,23.3,28.8z"/>
<path class="st4" d="M78,30c0.5-0.3,1.5-1,2-1.3c1.3,2.2-0.4,3.9-2.2,4.9L75.5,34C76,32.5,76.9,31.1,78,30z"/>
<path class="st2" d="M31.6,31.9c0.2-1.3,1.9-2.2,3-1.5C35.7,32.1,32.2,33.8,31.6,31.9z"/>
<path class="st2" d="M37,32.5c2.2-1.1,4.5-1.8,7-2.2c1,0.9,1.8,2,2.7,3c-0.1,3.2,0.4,6.4,0.7,9.6c1.1-0.7,2.2-1.3,3.3-1.9
	c-2,4.5-5.4,8.4-9.1,11.6c-0.4-0.2-1.2-0.7-1.6-0.9l-0.9,1.3c0.9,0.7,1.9,1.4,2.8,2.1c3.2-3.3,7.9-4.8,10.4-8.7
	c-0.1-2.5,2.1-3.8,3.7-5.3c-0.8,2.5-2.5,4.9-2.4,7.6c2.1-0.4,2.1-3,3.9-3.7c0.7,1.3,1.3,2.7,2.2,4c-0.7,0.2-2,0.7-2.7,0.9l0.9-2.4
	c-1.4,1.8-3.8,2.7-5.5,0.8c-3.9,3.1-8.4,5.4-12.1,8.6c2.1-0.3,4.3-0.6,6.3,0.5c0.7-0.7,1.4-1.3,2.1-1.9l-0.5,1.9
	c1.4,0.3,2.8,0.5,4.3,0.8c0.1-0.6,0.2-1.8,0.3-2.4c0.3,0.9,0.6,1.8,0.9,2.7c1.1-0.6,2-1.3,2.8-2.2c0.4,0.5,1.2,1.6,1.7,2.2
	c0.3-0.8,0.7-1.7,1-2.5c0.2,0.5,0.5,1.7,0.6,2.2c1.5-1.3,3.3-0.5,5,0c0.1-3.1-2-5.5-3-8.3c0.3-0.9,0.5-1.9,0.7-2.8
	c0.5-0.3,1.5-0.8,2-1.1c-0.9,0.1-2.8,0.3-3.8,0.3c-0.5-3.1,1.9-2.1,3.5-1.3c-0.1-0.7-0.2-2-0.3-2.6c-1-0.6-1.9-1.2-2.8-1.9
	c2.6-0.9,4.2,1.4,6,2.7c7,1.6,13.8-1.8,20.8-0.8l0.7,0c1.2,0,2.4,0,3.7-0.1c0.4,0.2,1.1,0.7,1.5,1c-5.8-0.5-11.7-0.3-17.4,0.8
	c-3.7,0.4-7.6,0.6-11.2-0.9c0.1,1.5,0.3,3.1,0.4,4.6c-1.2,0.2-2.3,0.5-3.5,0.7c1.3,3,2.8,6,3.8,9.1c2.5-0.7,5-1.2,7.5-1.6
	c-1.2-0.8-2.3-1.6-3.4-2.5c2.4,0.6,4.7,1.4,7,2.2c-1.3-1.2-2.6-2.2-4.1-3.1c1.9-0.4,3.9-0.8,5.8-1c-0.9,0.3-2.7,1-3.5,1.4
	c0.7,0.4,1.4,0.7,2.1,1.1c0.9-0.3,2.9-0.9,3.8-1.3c-0.8-1-1.5-2.1-2.2-3.2c1.6,0.9,3.3,1.8,4.9,2.7c0.3-0.8,0.8-1.6,1-2.4
	c-0.7-0.2-2.1-0.7-2.9-0.9c1.1-0.6,2.2-1.1,3.3-1.7c0.2,0.4,0.6,1.3,0.9,1.7l0.6,0.7l2-0.8c0-0.2,0.1-0.6,0.1-0.8
	c-0.3-0.2-0.9-0.5-1.1-0.6c0.8-0.8,1.6-1.6,2.4-2.4c0.5,0.3,1.4,1,1.9,1.3c1.1-0.7,2.3-1.4,3.5-2c0.2,0.3,0.7,0.8,0.9,1
	c-0.3,1.7-0.8,3.4-1.2,5c0.4-0.1,1.1-0.3,1.5-0.4l0.2,0.1c-1.3,1.5-2.6,3-4,4.3c0.3,1.3,0.7,2.6,1.1,3.8c4.4-1.6,3.5-7.3,7.4-9.5
	c-0.6,1.3-1.4,2.5-2.1,3.7c-1.1,3.9-4.3,6.4-6.9,9.3c0.3,1.5,0.6,2.9,0.9,4.4c3.5-2.8,5.8-6.5,7.8-10.5c0,2.4-1.6,4.2-2.5,6.3
	c-1.2,1.2-2.4,2.4-3.7,3.6c-0.3,0.3-0.9,0.8-1.2,1l-0.7,0.6c-2.5,0.9-5.1,1.1-7.7,1.9c0-0.3,0-0.8-0.1-1c2.6-0.6,5.2-1,7.9-1.3
	c-0.4-1.5-0.9-3-1.4-4.5c-2.3,1.6-4.6,3.3-7,4.9c-3.4,0.8-6.4,2.7-9.6,3.9c-8.9,1.7-16.9-3-25.3-5.2c6.5,0.2,12.3,3.8,18.6,4.9
	c0-0.7,0-2,0-2.6c1,3.1,4.2,2.3,6.6,2.1c2.6-1.3,5.2-2.7,8-3.6c0.9-0.4,1.9-0.8,2.8-1.1c2.6-2.1,5.6-3.8,7.8-6.4
	c-0.8-1.3-1.3-2.8-1.4-4.4c-1.5,1.1-2.8,2.5-4.3,3.6c-2.4,1-5,0.8-7.5,1.2c1.3,1.2,2.3,2.7,3,4.3c-1-0.7-1.9-1.4-2.9-2.1
	c-0.1-0.5-0.3-1.5-0.3-2.1L77.5,61c-0.1,0.2-0.2,0.6-0.3,0.8c1.2,1,2.3,1.9,2.9,3.4c-1.1-0.7-2.2-1.5-3.2-2.3l-1,1
	c-0.1-0.3-0.4-0.9-0.5-1.2l-0.3-0.6c-0.3,0.2-0.9,0.5-1.2,0.7c-2.3-0.6-4.6,0.3-6.9,0.7c-1.5-0.3-2.9-0.9-4.3-1.4
	c-0.5,1.5-0.9,3-1.6,4.4c0.2-1.3,0.5-3.8,0.6-5c-1.2,0.9-2.5,1.8-3.8,2.7c0.5-0.7,1.6-2.2,2.2-2.9c-5.7,1.2-11.4-0.1-17.1,0
	c-2-0.1-3.3-2-4.8-3.1c0.1,1.7,0.4,3.5-0.6,5c-0.4-3.4-0.6-7,1.2-10c-1.3,0-2.6,0-3.9,0c-0.9-1.6-1.9-3-2.8-4.6
	c1.1,0.7,2.1,1.6,3,2.5c1.9,0,3.8,0.2,5.7,0c2.1-1.2,4.1-2.8,5.2-5c-1-2.1-3.2-0.3-4.8-0.1l0.5-0.8c-1.3,0-2.7-0.1-4-0.2
	c0.3,0.5,0.9,1.6,1.2,2.1c-1.8-0.3-2.3-1.4-1.4-3.2l-1.4-0.3c0.1,1.2,0.3,3.5,0.4,4.6c-1-1.4-2-2.8-2.9-4.2l2.4,0.8
	c-1.7-3.1-1-6.4-0.5-9.6c0.8-0.4,2.3-1.1,3-1.5C38,33.4,37.5,33,37,32.5 M45.7,35.7c-0.5-1.3-1.1-2.7-1.6-4c-2,0-3.9,0.2-5.8,0.4
	C40.7,33.4,43.2,34.4,45.7,35.7 M37.6,37.2c1.6,1.4,2.7,3.1,1.9,5.3L38.9,44c2.1,0.8,6.7,1.1,5.1-2.5c0.2-1.2,0.3-2.4,0.4-3.6
	c-1.5-0.8-2.9-1.6-4.4-2.5C39.2,36.1,38.4,36.6,37.6,37.2 M90,47.3C90.4,47.7,90.4,47.7,90,47.3 M92.9,51.3c1.3-1,1.3-1.9-0.1-2.6
	C91.4,49.6,91.4,50.5,92.9,51.3 M88.4,52.7c-2.9-1.4-2.9,2.6-0.8,3.3c0.2-0.7,0.6-2,0.8-2.7c1.5,0.4,3-0.3,3.3-1.8
	C90.4,49.9,89.3,51.5,88.4,52.7 M84,54.4c-1.6,2.4-4.8,2.7-7.2,4c3.1-1,6.3-1.8,9.6-1.7C85.7,55.9,84.9,55.1,84,54.4 M39.4,54.9
	l-0.6,0.7C39,58.2,41.5,55.3,39.4,54.9 M64.9,60.4c0.5,0.2,1.5,0.5,2.1,0.7c2.7-1.3,5.9-1,8.6-2.6C71.8,58.5,68.5,60.2,64.9,60.4z"
	/>
<path class="st5" d="M66.3,30.2C66.9,30.8,66.9,30.8,66.3,30.2z"/>
<path class="st1" d="M70.2,31.4c1.2-0.6,2.4-1,3.6-1.5c0.1,0.4,0.3,1.1,0.4,1.5c-0.7,0.1-2.2,0.3-2.9,0.4l0.6,0.8l0.9,1.5
	c-0.5,0.3-1.4,0.9-1.8,1.2C70.6,34,70.3,32.8,70.2,31.4z"/>
<path class="st2" d="M53.1,31c2.8,1.8,4.6,5.1,6.1,7.9L58,37.4c-0.6,0.6-1.2,1.1-1.8,1.7c0-0.7,0.1-2.2,0.2-2.9
	C55.2,34.6,54.1,32.8,53.1,31z"/>
<path class="st1" d="M45.7,35.7c-2.5-1.3-5-2.3-7.4-3.6c1.9-0.2,3.9-0.4,5.8-0.4C44.6,33,45.2,34.3,45.7,35.7z"/>
<path class="st6" d="M71.8,32.6c1.7,1.1,3.3,2.5,4.9,3.7c-0.2,0.5-0.7,1.5-0.9,2c-0.4-0.2-1.1-0.7-1.4-0.9c-1.2-0.7-2.4-1.4-3.5-2.2
	c0.5-0.3,1.4-0.9,1.8-1.2L71.8,32.6z"/>
<path class="st1" d="M37.6,37.2c0.8-0.6,1.6-1.1,2.4-1.7c1.4,0.9,2.9,1.7,4.4,2.5c-0.1,1.2-0.3,2.4-0.4,3.6c-1.5,0.3-3,0.5-4.5,0.9
	C40.3,40.3,39.2,38.6,37.6,37.2 M41.6,39.3c-0.5,1.6,0,2.1,1.7,1.6C43.8,39.3,43.2,38.8,41.6,39.3z"/>
<path class="st7" d="M76.8,36.4l0.1-0.3c1.1,0.3,1.7,1.1,1.9,2.3c-0.3,0-0.8-0.2-1.1-0.2c-0.7,0.3-2,0.9-2.7,1.2l0.1,0.9
	c0.8-0.3,2.4-0.8,3.3-1.1l0.3,1.5c-3.5,0.6-8,1.6-10.9-0.9c0.4-0.6,1.2-1.7,1.6-2.3c0.3,0.5,0.8,1.4,1.1,1.9l0,0
	c0,0,0.1-0.1,0.2-0.1c1.3-0.6,2.5-1.1,3.8-1.7c0.4,0.2,1.1,0.7,1.4,0.9C76.1,37.9,76.5,36.9,76.8,36.4z"/>
<path class="st8" d="M77.6,38.1c0.3,0,0.8,0.2,1.1,0.2c1.6,0.3,3.2,0.6,4.8,0.9c1.8,0.5,3.7,0.9,5.5,1.4c-3.4,0-6.9,0.2-10.3-0.1
	l-0.3-1.5c-0.8,0.3-2.4,0.8-3.3,1.1L75,39.3C75.6,39,77,38.4,77.6,38.1z"/>
<path class="st2" d="M84.8,39.2c3.7-0.5,7.5-0.3,11.2-0.3c3,0,5.5,1.8,8.1,3c0.7,0.9,1.5,1.8,2.2,2.6c2.4,4,0.7,8.8-0.2,13
	c-1.1-2.8,1.2-5.5,0.6-8.4c0.3-2.8-1.8-4.8-3.5-6.7c-2.4,2-3.9,5.1-6,7c-0.2-1.8-0.3-3.5-0.6-5.3l-0.2-1.5c1.6-0.3,3.1-0.6,4.7-1
	c-3.2-3.3-8-1.4-12-2.1C87.7,39.4,86.2,39.3,84.8,39.2z"/>
<path class="st2" d="M30.3,39.6c0.6,0,2-0.1,2.6-0.1c-0.2,0.4-0.5,1.1-0.7,1.5c-1.4,0.6-2.8,1.4-4.2,2.1
	C28.7,41.9,29.5,40.7,30.3,39.6z"/>
<path class="st0" d="M41.6,39.3c1.7-0.5,2.2,0,1.7,1.6C41.6,41.4,41,40.9,41.6,39.3z"/>
<path class="st9" d="M70.4,39.3l0.2-0.1C70.6,39.2,70.5,39.3,70.4,39.3L70.4,39.3z"/>
<path class="st10" d="M83.5,39.2l1.3,0c1.4,0.1,2.9,0.2,4.3,0.3c0,0.6-0.1,1.8-0.1,2.4c2.3,0.1,4.5,0.2,6.7,0.3
	c0.2,0.5,0.7,1.4,0.9,1.8c0.3,1.8,0.4,3.5,0.6,5.3l-0.7,1c-0.4,0.1-1.1,0.3-1.5,0.4c0.4-1.7,0.8-3.3,1.2-5c-0.2-0.3-0.7-0.8-0.9-1
	c-0.4-0.3-1.2-0.9-1.6-1.2c-0.4-0.2-1.1-0.7-1.5-1c-1.2,0.1-2.4,0.1-3.7,0.1l-0.7,0l1.1-1.9C87.2,40.2,85.3,39.7,83.5,39.2z"/>
<path class="st1" d="M89.1,39.5c4,0.7,8.8-1.2,12,2.1c-1.6,0.4-3.1,0.7-4.7,1l0.2,1.5c-0.2-0.5-0.6-1.4-0.9-1.8
	c-2.3-0.1-4.5-0.2-6.7-0.3C89,41.3,89.1,40.1,89.1,39.5z"/>
<path class="st11" d="M39.5,42.5c1.5-0.4,3-0.7,4.5-0.9c1.5,3.6-3,3.2-5.1,2.5L39.5,42.5z"/>
<path class="st12" d="M58.1,42.3c1.7-0.5,2.2,0,1.6,1.6C58.1,44.4,57.5,43.9,58.1,42.3z"/>
<path class="st1" d="M65.2,43.4c3.6,1.5,7.5,1.3,11.2,0.9c5.7-1.1,11.6-1.3,17.4-0.8c0.4,0.3,1.2,0.9,1.6,1.2
	c-1.2,0.6-2.3,1.3-3.5,2c-0.5-0.3-1.4-1-1.9-1.3c-0.8,0.8-1.6,1.6-2.4,2.4c0.3,0.2,0.9,0.5,1.1,0.6c0,0.2-0.1,0.6-0.1,0.8l-2,0.8
	l-0.6-0.7c-0.2-0.4-0.7-1.3-0.9-1.7c-1.1,0.6-2.2,1.2-3.3,1.7c0.7,0.2,2.1,0.7,2.9,0.9c-0.2,0.9-0.7,1.6-1,2.4
	c-1.6-0.9-3.2-1.8-4.9-2.7c0.7,1.1,1.4,2.1,2.2,3.2c-0.9,0.3-2.8,0.9-3.8,1.3c-0.7-0.4-1.4-0.7-2.1-1.1c0.9-0.3,2.7-1,3.5-1.4
	c-2,0.2-3.9,0.6-5.8,1c1.4,0.9,2.8,1.9,4.1,3.1c-2.3-0.8-4.6-1.6-7-2.2c1.1,0.8,2.3,1.6,3.4,2.5c-2.5,0.4-5,1-7.5,1.6
	c-1-3.1-2.5-6.1-3.8-9.1c1.2-0.2,2.4-0.4,3.5-0.7C65.4,46.4,65.3,44.9,65.2,43.4 M65.4,51c-0.7,1.2,1,3.1,2.3,2.6
	C68.2,52.4,66.8,50.2,65.4,51z"/>
<path class="st13" d="M41.3,46.2c1.6-0.3,3.7-2,4.8,0.1c-1.1,2.2-3,3.8-5.2,5c-0.1-1.6-0.1-3.2-0.3-4.8L41.3,46.2z"/>
<path class="st14" d="M90,47.3C90.4,47.7,90.4,47.7,90,47.3z"/>
<path class="st2" d="M14.3,52.9c1.1-2.4,3.5-4.1,6-5C18.5,49.7,16.5,51.5,14.3,52.9z"/>
<path d="M37.5,48.8c0.2-0.3,0.7-0.8,1-1.1c1,0.7,1.1,1.5,0.3,2.3C38.5,49.7,37.8,49.1,37.5,48.8z"/>
<path class="st1" d="M92.9,51.3c-1.4-0.8-1.5-1.7-0.1-2.6C94.2,49.4,94.2,50.3,92.9,51.3z"/>
<path class="st2" d="M65.4,51c1.3-0.7,2.8,1.4,2.3,2.6C66.4,54.1,64.8,52.2,65.4,51z"/>
<path class="st1" d="M88.4,52.7c0.8-1.2,2-2.8,3.4-1.2c-0.4,1.6-1.8,2.2-3.3,1.8c-0.2,0.7-0.6,2-0.8,2.7
	C85.6,55.3,85.6,51.3,88.4,52.7z"/>
<path class="st1" d="M84,54.4c0.8,0.7,1.6,1.5,2.4,2.3c-3.3-0.1-6.5,0.7-9.6,1.7C79.2,57.1,82.4,56.8,84,54.4z"/>
<path class="st15" d="M39.4,54.9c2.2,0.4-0.4,3.3-0.6,0.7L39.4,54.9z"/>
<path class="st2" d="M31.2,62c0.3-1.8,0.6-3.7,1.5-5.3c0.2,3-1,5.7-1.6,8.5c0,1.9,2.1,2.8,3.4,3.8c0.8,0.6,1.5,1.3,2,2.2
	C33,69.8,28.4,66,31.2,62z"/>
<path class="st1" d="M64.9,60.4c3.6-0.2,7-1.9,10.6-1.8c-2.6,1.6-5.9,1.2-8.6,2.6C66.4,61,65.4,60.6,64.9,60.4z"/>
<path class="st2" d="M38.8,62.1c3.6,1.6,6.4,4.6,10.3,5.7C45,67.5,41.2,65.3,38.8,62.1z"/>
<path class="st2" d="M98.1,66.7c-0.6-1.3,1.3-3.5,2.6-2.6C101.4,65.5,99.5,67.4,98.1,66.7z"/>
<path class="st16" d="M39,65.5c1.5-1.1,3.1,2.4,2.2,3.6c-0.7-0.6-1.5-1.2-2.3-1.8C39,66.9,39,66,39,65.5z"/>
<path class="st2" d="M116.7,65.1c0.3,0,0.9,0.1,1.2,0.2c-2,7.9-9.1,13.5-10.7,21.7c-1.9,4.4-3.7,8.8-4.7,13.5
	c-0.7-5.2,2.6-9.6,4.2-14.3c1.5-6,5.3-10.9,8.6-16C116.3,68.7,116.6,66.9,116.7,65.1z"/>
<path d="M36.8,66.9c0.5,0.1,1.6,0.3,2.1,0.4c0.8,0.6,1.5,1.2,2.3,1.8c1.1,1.3,2,2.7,2.9,4.2c-0.4-0.4-1.3-1.2-1.8-1.6
	c-0.3-0.3-1-1-1.3-1.4C39.8,69,38.3,68,36.8,66.9z"/>
<path class="st17" d="M93.4,66.9c0.3-0.3,0.9-0.8,1.2-1c-1,4.3-2.8,8.6-1.5,13.1c-0.6,0-1.6,0-2.2,0c0-3.9,0.3-7.9,1.8-11.5
	L93.4,66.9z"/>
<path class="st18" d="M41.1,70.3c0.3,0.3,1,1,1.3,1.4c-0.1,4.4,1.7,8.5,1.8,12.9c-0.5-0.1-1.5-0.4-2-0.6
	C42.2,79.4,40.6,74.9,41.1,70.3z"/>
<path class="st2" d="M9.6,72c2.5,0.3,5.1,0.9,7.3,2.1c-0.4,1.1-0.8,2.1-1.3,3.2C14.9,74.3,12.3,73,9.6,72z"/>
<path class="st2" d="M46.7,71.9c3.9,3.1,8.8,5.9,13.8,4.2c-1.8,0.9-3.8,2.2-5.7,1C52,75.8,47.9,75.2,46.7,71.9z"/>
<path class="st19" d="M104.2,72.2C104.7,72.8,104.7,72.8,104.2,72.2z"/>
<path class="st2" d="M21.5,78.7c-0.7-1.9,0.1-3.8,0.6-5.6c2.2,2.8,1.5,6.3,1.2,9.6c-0.2,0-0.7,0.1-1,0.1c0.4-2.5,0.6-5,0.7-7.5l-1,0
	C22,76.2,21.7,77.9,21.5,78.7z"/>
<path class="st2" d="M133.6,75.1c1.8-0.3,2.7,4.4,0.8,4.6C133.5,78.6,133.1,76.6,133.6,75.1z"/>
<path class="st20" d="M103.1,78.2C106.4,78.4,101.5,81.2,103.1,78.2z"/>
<path class="st2" d="M8.2,85c0.2-1.3,1.7-2.2,2.9-2.4C13.1,83.9,9.1,87.2,8.2,85z"/>
<path class="st21" d="M84.1,83.1c1.6-0.5,2.2,0,1.7,1.6C84.2,85.3,83.6,84.8,84.1,83.1z"/>
<path class="st22" d="M67.2,84.2C67.8,84.7,67.8,84.7,67.2,84.2z"/>
<path class="st2" d="M10.4,88.3c1.5-1.1,2.5-2.9,4.4-3.4c-2.3,3.2-5.9,5-8.6,7.9C6.7,90.6,8.8,89.6,10.4,88.3z"/>
<path class="st2" d="M39.3,85.9c0.9,1,1.7,2.1,2.5,3.1c1-0.3,2-0.6,3-0.9c-0.2,1-0.5,1.9-0.7,2.9c2.4,4.1,4.8,8.2,7.7,12
	c1.8,2.8,4.5,5,5.9,8c-5.7-6.2-11.1-12.9-14.4-20.7l-0.8,0.2l0.2-0.9C40.6,89.6,40,87.5,39.3,85.9z"/>
<path class="st23" d="M64.3,89.2C67.3,87.6,64.5,92.5,64.3,89.2z"/>
<path class="st24" d="M111.2,90.1C114.2,88.7,111.2,93.5,111.2,90.1z"/>
<path class="st2" d="M8.8,100c2.3-3.3,5.4-6.4,9.1-8C15.2,95,11.8,97.3,8.8,100z"/>
<path class="st2" d="M23.8,92.9c4.6,3,2.8,9.4,2.2,14c-0.6-1.4-1.3-2.8-2-4.1c-0.4,2.7-0.6,5.5-0.3,8.3c1.5,4.1,5.9,5.7,8.4,9
	c-2.8-1-4.6-3.6-6.9-5.4c-4-3.7-2.1-9.6-1.6-14.3c0.1,0,0.3,0.1,0.4,0.1c0.6,1.2,1.3,2.4,2,3.5c0.4-2.9,0.2-5.8-0.7-8.6
	C24.9,94.8,24.2,93.5,23.8,92.9z"/>
<path class="st25" d="M97.2,94.2C97.8,94.7,97.8,94.7,97.2,94.2z"/>
<path class="st26" d="M73.1,100.2C76,98.6,73.4,103.6,73.1,100.2z"/>
<path class="st12" d="M55.1,101.3C58.4,101.5,53.5,104.3,55.1,101.3z"/>
<path class="st2" d="M67.7,102.5c2.8-0.3,5.7,0,7.7,2.1C72.9,103.6,70.2,103.4,67.7,102.5z"/>
<path class="st2" d="M84.1,109.2c-2.1-1.7,1.2-4,2.8-4.4C85.5,106.1,84.1,107.2,84.1,109.2z"/>
<path class="st2" d="M27,108.8c1.7,3,3.4,6.1,6.2,8.1c2.4,1.6,4.8,3.2,6.9,5.2C34.7,119.1,28.1,115.4,27,108.8z"/>
<path class="st2" d="M83.3,110.8c1.5,3.2,2.3,6.6,2,10.2c0,4.3-2.7,7.9-3.9,11.9c-0.4,0.3-1.1,0.8-1.5,1c1.2-3.5,3.3-6.6,4.4-10.1
	C85.4,119.4,83.9,115.2,83.3,110.8z"/>
<path class="st27" d="M43.3,112.1C46.3,110.4,43.6,115.4,43.3,112.1z"/>
<path class="st2" d="M99.3,133.6c2-0.8,3.1-3,4.7-4.4c-1,2-2.4,3.6-3.8,5.3c-5.3-0.9-10.5,3-15.4,0
	C89.7,135.6,94.4,133.4,99.3,133.6z"/>
<path class="st2" d="M57.1,133.2c3.1,0.6,5.7,2.8,8.9,3c3.5,0.4,7-0.3,10.4-0.9c-3.8,2.6-8.7,1.6-13,1.5
	C61.3,135.6,59,134.7,57.1,133.2z"/>
</svg>
