<?xml version="1.0" standalone="no"?>
<!DOCTYPE svg PUBLIC "-//W3C//DTD SVG 1.1//EN" "http://www.w3.org/Graphics/SVG/1.1/DTD/svg11.dtd" >
<svg xmlns="http://www.w3.org/2000/svg">
<metadata>Generated by IcoMoon</metadata>
<defs>
<font id="icons" horiz-adv-x="1024">
<font-face units-per-em="1024" ascent="960" descent="-64" />
<missing-glyph horiz-adv-x="1024" />
<glyph unicode="&#x20;" horiz-adv-x="512" d="" />
<glyph unicode="&#xe900;" glyph-name="arrow-down" horiz-adv-x="1913" d="M1893.185 940.561c-12.231 12.23-29.128 19.794-47.791 19.794s-35.56-7.564-47.791-19.794v0l-840.468-842.905-842.124 842.905c-12.234 12.22-29.128 19.777-47.786 19.777-37.346 0-67.62-30.275-67.62-67.62 0-18.687 7.58-35.604 19.834-47.843l888.257-889.090c11.98-12.217 28.657-19.789 47.103-19.789 0.242 0 0.484 0.001 0.725 0.004h-0.037c18.64 0.134 35.496 7.662 47.803 19.794l888.269 889.064c13.075 12.148 21.229 29.438 21.229 48.633 0 18.401-7.494 35.052-19.597 47.067l-0.004 0.004z" />
<glyph unicode="&#xe901;" glyph-name="arrow-left" horiz-adv-x="548" d="M537.832-53.593c6.548 6.549 10.598 15.595 10.598 25.587s-4.050 19.039-10.598 25.587v0l-451.283 449.978 451.283 450.865c6.542 6.55 10.588 15.595 10.588 25.584 0 19.994-16.209 36.203-36.203 36.203-10.005 0-19.062-4.058-25.615-10.619v0l-476.009-475.563c-6.541-6.415-10.595-15.345-10.595-25.222 0-0.128 0.001-0.256 0.002-0.384v0.020c0.072-9.98 4.102-19.004 10.597-25.593l475.996-475.571c6.504-7 15.761-11.366 26.038-11.366 9.852 0 18.767 4.012 25.199 10.492l0.002 0.002z" />
<glyph unicode="&#xe902;" glyph-name="arrow-right" horiz-adv-x="548" d="M10.407-53.593c-6.548 6.549-10.598 15.595-10.598 25.587s4.050 19.039 10.598 25.587v0l451.275 449.984-451.275 450.859c-6.542 6.55-10.588 15.595-10.588 25.584 0 19.994 16.209 36.203 36.203 36.203 10.005 0 19.062-4.058 25.615-10.619v0l476.009-475.563c6.541-6.414 10.595-15.343 10.595-25.219 0-0.13-0.001-0.259-0.002-0.388v0.020c-0.072-9.98-4.102-19.004-10.597-25.593l-476.005-475.565c-6.504-6.999-15.76-11.364-26.036-11.364-9.848 0-18.76 4.009-25.192 10.485l-0.002 0.002z" />
<glyph unicode="&#xe903;" glyph-name="arrow-up" horiz-adv-x="1913" d="M1893.185 940.561c-12.231 12.23-29.128 19.794-47.791 19.794s-35.56-7.564-47.791-19.794v0l-840.468-842.905-842.124 842.905c-12.234 12.22-29.128 19.777-47.786 19.777-37.346 0-67.62-30.275-67.62-67.62 0-18.687 7.58-35.604 19.834-47.843l888.257-889.090c11.98-12.217 28.657-19.789 47.103-19.789 0.242 0 0.484 0.001 0.725 0.004h-0.037c18.64 0.134 35.496 7.662 47.803 19.794l888.269 889.064c13.075 12.148 21.229 29.438 21.229 48.633 0 18.401-7.494 35.052-19.597 47.067l-0.004 0.004z" />
<glyph unicode="&#xe904;" glyph-name="cross" d="M1024 913.557l-46.443 46.443-465.557-465.458-465.557 465.458-46.443-46.443 465.458-465.557-465.458-465.557 46.443-46.443 465.557 465.458 465.557-465.458 46.443 46.443-465.458 465.557z" />
<glyph unicode="&#xe905;" glyph-name="heart-dislike" horiz-adv-x="1109" d="M1102.933 654.741c-16.064 177.067-141.205 305.408-297.813 305.408-107.591-0.679-201.488-58.664-252.775-144.941l-0.75-1.363c-49.453 87.466-141.589 145.691-247.377 146.325h-0.089c-156.651 0-281.813-128.405-297.856-305.408-1.114-9.951-1.75-21.488-1.75-33.174 0-29.494 4.050-58.043 11.624-85.119l-0.53 2.218c25.126-101.777 78.769-188.584 151.891-254.091l0.472-0.416 383.36-348.288 22.763 20.309 0.597-0.192 0.341 1.045 366.251 327.083c73.586 65.932 127.222 152.747 151.622 251.103l0.719 3.425c7.017 24.847 11.051 53.381 11.051 82.857 0 11.701-0.636 23.253-1.874 34.624l0.124-1.407zM544.512-0.704l-348.096 316.267c-67.397 60.3-116.536 139.721-138.924 229.718l-0.66 3.136c-6.37 22.084-10.034 47.45-10.034 73.672 0 9.131 0.444 18.159 1.312 27.062l-0.089-1.129 0.32 2.133c13.76 155.072 121.28 267.648 255.723 267.648 103.585-1.6 191.628-66.442 227.343-157.546l0.582-1.686 1.344-3.371-172.117-172.309 315.051-41.941-241.067-221.269 178.773-111.851zM1052.437 548.395c-23.006-93.044-72.070-172.398-138.937-232.28l-0.433-0.382-311.125-277.909 62.677 188.309-159.851 100.032 266.837 244.8-319.872 42.667 99.392 99.499 0.363-0.832 0.875 2.133 17.237 17.301-7.019 7.040 8.384 19.904c38.806 93.38 128.838 158.063 234.106 159.124l0.134 0.001c134.4 0 241.963-112.576 256-269.653 0.802-7.872 1.26-17.013 1.26-26.26 0-26.16-3.661-51.465-10.5-75.43l0.472 1.935z" />
<glyph unicode="&#xe906;" glyph-name="heart-dislike-fill" horiz-adv-x="1109" d="M164.267 279.467c-73.927 67.595-127.768 156.020-152.255 255.969l-0.727 3.508c-7.102 24.687-11.186 53.042-11.186 82.351 0 11.654 0.646 23.158 1.903 34.477l-0.126-1.393c14.507 166.016 129.92 305.344 290.155 305.344 99.229-0.603 185.88-53.883 233.464-133.263l0.691-1.244-0.448 0.384-164.907-245.888 321.387-43.563-252.736-235.477 187.392-119.040-80.448-245.333zM1098.155 538.88c-25.252-103.444-79.127-191.847-152.693-259.057l-0.395-0.356-354.859-321.749 79.808 243.349-167.552 106.453 279.701 260.565-344.128 46.613 118.955 177.323c1.224 0.823 2.211 1.906 2.899 3.174l0.023 0.047c47.093 97.12 144.418 163.175 257.302 164.457l0.17 0.002c160.235 0 275.648-139.328 290.133-305.365 1.148-9.985 1.804-21.555 1.804-33.278 0-29.248-4.078-57.543-11.697-84.349l0.528 2.171z" />
<glyph unicode="&#xe907;" glyph-name="heart-like" horiz-adv-x="1109" d="M1102.933 654.741c-16.064 177.067-141.205 305.408-297.813 305.408-107.591-0.679-201.488-58.664-252.775-144.941l-0.75-1.363c-49.453 87.466-141.589 145.691-247.377 146.325h-0.089c-156.651 0-281.813-128.405-297.856-305.408-1.114-9.951-1.75-21.488-1.75-33.174 0-29.494 4.050-58.043 11.624-85.119l-0.53 2.218c25.126-101.777 78.769-188.584 151.891-254.091l0.472-0.416 383.36-348.288 389.952 348.267c73.597 65.935 127.241 152.757 151.644 251.124l0.719 3.425c7.007 24.823 11.034 53.33 11.034 82.778 0 11.714-0.637 23.278-1.879 34.661l0.125-1.408zM1052.352 548.395c-22.982-93.036-72.018-172.39-138.855-232.282l-0.43-0.379-361.472-322.859-355.179 322.688c-67.397 60.3-116.536 139.721-138.924 229.718l-0.66 3.136c-6.37 22.084-10.034 47.45-10.034 73.672 0 9.131 0.444 18.159 1.312 27.062l-0.089-1.129 0.32 2.133c13.76 155.072 121.28 267.648 255.723 267.648 103.585-1.6 191.628-66.442 227.343-157.546l0.582-1.686 19.499-46.251 19.499 46.251c38.781 93.415 128.82 158.133 234.105 159.21l0.135 0.001c134.4 0 241.963-112.576 256-269.653 0.791-7.827 1.241-16.916 1.241-26.11 0-26.205-3.663-51.554-10.504-75.563l0.473 1.941z" />
<glyph unicode="&#xe908;" glyph-name="heart-like-fill" horiz-adv-x="1109" d="M1102.933 654.741c-16.064 177.067-141.205 305.408-297.813 305.408-107.591-0.679-201.488-58.664-252.775-144.941l-0.75-1.363c-49.453 87.466-141.589 145.691-247.377 146.325h-0.089c-156.651 0-281.813-128.405-297.856-305.408-1.114-9.951-1.75-21.488-1.75-33.174 0-29.494 4.050-58.043 11.624-85.119l-0.53 2.218c25.126-101.777 78.769-188.584 151.891-254.091l0.472-0.416 383.36-348.288 389.952 348.267c73.597 65.935 127.241 152.757 151.644 251.124l0.719 3.425c7.007 24.823 11.034 53.33 11.034 82.778 0 11.714-0.637 23.278-1.879 34.661l0.125-1.408z" />
<glyph unicode="&#xe909;" glyph-name="heart-neutral" horiz-adv-x="1109" d="M1103.040 654.72c-16.064 177.067-141.205 305.408-297.813 305.408-107.616-0.655-201.541-58.646-252.839-144.941l-0.75-1.363c-49.453 87.466-141.589 145.691-247.377 146.325h-0.089c-156.672 0-281.835-128.427-297.771-305.408-1.13-10.020-1.774-21.635-1.774-33.401 0-29.412 4.028-57.883 11.561-84.891l-0.528 2.218c25.116-101.783 78.752-188.598 151.87-254.113l0.471-0.415 383.36-348.288 389.952 348.267c73.597 65.935 127.241 152.757 151.644 251.124l0.719 3.425c7.046 24.892 11.098 53.478 11.098 83.011 0 11.639-0.629 23.131-1.856 34.444l0.123-1.401zM1052.459 548.373c-23.016-93.038-72.087-172.385-138.958-232.258l-0.434-0.382-342.037-305.067-19.392-17.792-355.179 322.667c-67.405 60.297-116.552 139.719-138.945 229.718l-0.66 3.136c-6.37 22.085-10.034 47.452-10.034 73.674 0 9.131 0.444 18.158 1.312 27.061l-0.089-1.129 0.32 2.133c13.76 155.072 121.301 267.648 255.723 267.648 103.593-1.591 191.646-66.435 227.365-157.546l0.582-1.686v-747.883l19.605-17.792 19.392 17.792v747.883c38.786 93.411 128.822 158.127 234.104 159.21l0.136 0.001c134.4 0 241.963-112.576 256-269.653 0.791-7.827 1.241-16.916 1.241-26.11 0-26.205-3.663-51.554-10.504-75.563l0.473 1.941z" />
<glyph unicode="&#xe90a;" glyph-name="heart-neutral-fill" horiz-adv-x="1109" d="M1103.040 654.72c-16.064 177.067-141.205 305.408-297.813 305.408-107.616-0.655-201.541-58.646-252.839-144.941l-0.75-1.363c-49.453 87.466-141.589 145.691-247.377 146.325h-0.089c-156.672 0-281.835-128.427-297.771-305.408-1.13-10.020-1.774-21.635-1.774-33.401 0-29.412 4.028-57.883 11.561-84.891l-0.528 2.218c25.116-101.783 78.752-188.598 151.87-254.113l0.471-0.415 383.36-348.288 389.952 348.267c73.597 65.935 127.241 152.757 151.644 251.124l0.719 3.425c7.046 24.892 11.098 53.478 11.098 83.011 0 11.639-0.629 23.131-1.856 34.444l0.123-1.401zM1052.459 548.373c-23.016-93.038-72.087-172.385-138.958-232.258l-0.434-0.382-342.037-305.067v747.883c38.786 93.411 128.822 158.127 234.104 159.21l0.136 0.001c134.4 0 241.963-112.576 256-269.653 0.791-7.827 1.241-16.916 1.241-26.11 0-26.205-3.663-51.554-10.504-75.563l0.473 1.941z" />
<glyph unicode="&#xe90b;" glyph-name="logo" horiz-adv-x="5167" d="M186.182 899.491c-46.545-41.891-69.818-97.745-69.818-167.564v-107.055h-116.364v-121.018h116.364v-553.891h153.6v553.891h158.255v116.364h-158.255v93.091c0 83.782 37.236 125.673 111.709 125.673 27.927 0 51.2-4.655 69.818-18.618v125.673c-23.273 9.309-51.2 13.964-93.091 13.964-69.818 0-125.673-18.618-172.218-60.509zM1037.964 936.727c-23.273 0-46.545-9.309-65.164-23.273-18.618-18.618-27.927-37.236-27.927-60.509s9.309-46.545 27.927-60.509 37.236-23.273 65.164-23.273 46.545 9.309 65.164 23.273c18.618 18.618 27.927 37.236 27.927 60.509s-9.309 46.545-27.927 60.509-37.236 23.273-65.164 23.273zM558.545-50.036h153.6v996.073h-153.6v-996.073zM958.836-50.036h153.6v670.255h-153.6v-670.255zM1414.982 536.436c-65.164-65.164-97.745-153.6-97.745-265.309 0-97.745 32.582-181.527 93.091-242.036s144.291-93.091 242.036-93.091c74.473 0 139.636 13.964 190.836 46.545v130.327c-46.545-37.236-102.4-60.509-153.6-60.509-65.164 0-116.364 18.618-158.255 60.509-37.236 41.891-60.509 93.091-60.509 162.909s18.618 125.673 60.509 172.218c41.891 41.891 93.091 65.164 158.255 65.164 51.2 0 102.4-18.618 148.945-51.2v139.636c-46.545 23.273-102.4 32.582-162.909 32.582-102.4 4.655-195.491-27.927-260.655-97.745zM2885.818 960v-1024h1024v698.182h116.364v-88.436c41.891 69.818 97.745 102.4 172.218 102.4 65.164 0 116.364-23.273 153.6-69.818s55.855-107.055 55.855-186.182c0-83.782-18.618-153.6-60.509-204.8s-97.745-79.127-167.564-79.127c-65.164 0-116.364 27.927-148.945 83.782v0-260.655h1135.709v1028.655h-2280.727zM3486.255 541.091h-121.018v-256c0-32.582 4.655-51.2 18.618-65.164 9.309-13.964 27.927-18.618 55.855-18.618 18.618 0 37.236 4.655 51.2 18.618v-93.091c-23.273-9.309-51.2-18.618-88.436-18.618-97.745 0-148.945 46.545-148.945 144.291v288.582h-88.436v93.091h83.782v116.364l116.364 32.582v-148.945h121.018v-93.091zM3728.291 122.182h-116.364v512h116.364v-512zM3718.982 759.855c-13.964-13.964-32.582-18.618-51.2-18.618s-37.236 4.655-46.545 18.618c-13.964 13.964-18.618 27.927-18.618 46.545s4.655 32.582 18.618 46.545 27.927 18.618 46.545 18.618 37.236-4.655 51.2-18.618c13.964-13.964 18.618-27.927 18.618-46.545s-4.655-32.582-18.618-46.545zM4850.036 196.655c-13.964-18.618-27.927-37.236-46.545-46.545-18.618-13.964-41.891-23.273-69.818-27.927s-55.855-9.309-83.782-9.309c-55.855 0-102.4 9.309-144.291 27.927v107.055c41.891-32.582 93.091-51.2 144.291-51.2 69.818 0 107.055 18.618 107.055 60.509 0 13.964-4.655 23.273-9.309 27.927-4.655 9.309-13.964 13.964-23.273 23.273-9.309 4.655-23.273 13.964-37.236 18.618s-27.927 9.309-46.545 18.618c-23.273 9.309-41.891 18.618-55.855 27.927-18.618 9.309-32.582 18.618-41.891 32.582s-18.618 23.273-23.273 41.891c-4.655 13.964-9.309 32.582-9.309 51.2 0 23.273 4.655 46.545 18.618 65.164s27.927 32.582 46.545 46.545 41.891 23.273 65.164 27.927 51.2 9.309 79.127 9.309c46.545 0 88.436-9.309 125.673-23.273v-102.4c-37.236 23.273-79.127 37.236-125.673 37.236-13.964 0-27.927 0-41.891-4.655s-23.273-9.309-27.927-13.964c-9.309-4.655-13.964-13.964-18.618-18.618-4.655-9.309-9.309-13.964-9.309-23.273s0-18.618 9.309-27.927c4.655-9.309 9.309-13.964 18.618-18.618s18.618-9.309 32.582-13.964c13.964-4.655 27.927-9.309 46.545-13.964 23.273-9.309 41.891-18.618 60.509-27.927s32.582-18.618 46.545-32.582 23.273-23.273 27.927-41.891c4.655-13.964 9.309-32.582 9.309-55.855-4.655-27.927-13.964-51.2-23.273-69.818zM4151.855 201.309c41.891 0 74.473 18.618 102.4 51.2 23.273 32.582 37.236 79.127 37.236 139.636 0 51.2-9.309 88.436-32.582 116.364s-55.855 41.891-93.091 41.891c-41.891 0-74.473-13.964-97.745-41.891s-37.236-65.164-37.236-111.709v-65.164c0-37.236 13.964-69.818 37.236-93.091 18.618-23.273 46.545-37.236 83.782-37.236zM2629.818 620.218h-186.182l-246.691-307.2h-4.655v633.018h-153.6v-991.418h153.6v321.164h4.655l260.655-321.164h195.491l-302.545 349.091 279.273 316.509z" />
<glyph unicode="&#xe90c;" glyph-name="star" horiz-adv-x="1077" d="M1078.543 568.874l-356.614 75.252-181.778 315.874-181.778-315.874-356.614-75.252 244.266-270.484-38.618-362.39 332.744 148.71 332.745-148.71-38.618 362.387zM540.151 158.085l-253.792-113.426 29.457 276.41-186.31 206.297 272 57.4 138.645 240.927 138.645-240.927 271.992-57.402-186.298-206.303 29.455-276.41z" />
<glyph unicode="&#xe90d;" glyph-name="star-fill" horiz-adv-x="1077" d="M1078.543 568.874l-356.614 75.25-181.778 315.876-181.779-315.876-356.612-75.25 244.266-270.48-38.618-362.394 332.744 148.712 332.742-148.712-38.62 362.387z" />
<glyph unicode="&#xe90e;" glyph-name="soc_fb" d="M307.558 595.251h87.629v87.424c0 38.4 0.973 97.946 28.16 134.784 28.311 39.961 74.371 65.728 126.449 65.728 3.356 0 6.687-0.107 9.989-0.318l-0.451 0.023c7.18 0.342 15.595 0.537 24.056 0.537 47.25 0 93.081-6.079 136.752-17.498l-3.751 0.833-21.914-133.12c-20.962 6.166-45.15 10.062-70.133 10.793l-0.421 0.010c-34.074 0-64.589-12.493-64.589-47.462v-101.606h139.699l-9.728-130.099h-129.92v-452.173h-164.198v452.045h-87.629v130.099z" />
<glyph unicode="&#xe90f;" glyph-name="soc_vk" d="M500.634 143.36h61.184c10.867 1.336 20.463 5.962 27.967 12.834l-0.038-0.034c5.277 7.698 8.427 17.214 8.427 27.466 0 0.244-0.002 0.487-0.005 0.73v-0.037s-1.203 86.426 36.915 99.123c37.555 12.595 85.811-83.482 136.986-120.32 16.167-13.789 37.304-22.178 60.401-22.178 2.7 0 5.373 0.115 8.014 0.339l-0.344-0.024 136.704 2.022s71.526 4.608 37.632 63.77c-2.79 4.864-19.763 43.827-101.683 123.802-85.76 83.686-74.24 70.144 29.056 215.040 62.848 88.192 88.038 142.029 80.128 165.12-7.45 21.965-53.76 16.179-53.76 16.179l-153.958-1.024c-1.241 0.163-2.677 0.256-4.134 0.256-5.769 0-11.196-1.46-15.934-4.030l0.176 0.088c-5.835-4.55-10.457-10.387-13.479-17.099l-0.114-0.284c-18.321-49.735-37.469-91.368-59.368-131.278l2.51 4.993c-68.557-122.47-96-128.973-107.187-121.344-26.086 17.766-19.558 71.219-19.558 109.21 0 118.682 17.126 168.192-33.28 180.992-18.549 4.91-39.844 7.73-61.798 7.73-3.556 0-7.096-0.074-10.616-0.221l0.504 0.017c-54.938 0.563-101.427-0.179-127.744-13.773-17.562-9.011-31.053-29.107-22.784-30.285 18.334-1.861 34.292-10.758 45.355-23.909l0.085-0.103c9.635-20.253 15.261-44.011 15.261-69.084 0-1.489-0.020-2.974-0.059-4.453l0.005 0.218s9.088-139.725-21.171-157.082c-20.762-11.93-49.254 12.39-110.362 123.494-17.994 32.523-36.468 71.984-52.483 112.682l-2.48 7.152c-2.943 7.148-7.295 13.184-12.748 18.003l-0.052 0.045c-6.697 4.754-14.63 8.261-23.207 9.994l-0.396 0.067-146.202-1.126c-11.43-0.065-21.908-4.090-30.144-10.771l0.090 0.071c-1.95-4.233-3.087-9.186-3.087-14.404 0-4.687 0.917-9.16 2.583-13.249l-0.085 0.235s114.534-281.882 244.25-423.885c118.963-130.304 254.029-121.677 254.029-121.677z" />
<glyph unicode="&#xe910;" glyph-name="list" horiz-adv-x="1171" d="M1061.799 960h-769.718c-60.020 0-108.814-48.795-108.814-108.814v-697.557h-166.085c-9.392 0-17.181-7.789-17.181-17.181v-91.633c0-60.020 48.795-108.814 108.814-108.814h769.718c60.020 0 108.814 48.795 108.814 108.814v697.557h166.085c9.392 0 17.181 7.789 17.181 17.181v91.633c0 60.020-48.795 108.814-108.814 108.814zM108.814-29.638c-41.006 0-74.452 33.446-74.452 74.452v74.452h166.085c0 0 0 0 0 0s0 0 0 0h569.271v-74.452c0-28.864 11.225-54.98 29.552-74.452h-690.455zM952.984 44.814c0-41.006-33.446-74.452-74.452-74.452s-74.452 33.446-74.452 74.452v91.633c0 9.392-7.789 17.181-17.181 17.181h-569.271v697.557c0 41.006 33.446 74.452 74.452 74.452h690.455c-18.327-19.472-29.552-45.587-29.552-74.452v-806.371zM1136.251 776.734h-148.904v74.452c0 41.006 33.446 74.452 74.452 74.452s74.452-33.446 74.452-74.452v-74.452zM365.387 795.060h-36.653c-9.392 0-17.181-7.789-17.181-17.181s7.789-17.181 17.181-17.181h36.653c9.392 0 17.181 7.789 17.181 17.181s-7.789 17.181-17.181 17.181zM841.879 795.060h-403.186c-9.392 0-17.181-7.789-17.181-17.181s7.789-17.181 17.181-17.181h403.186c9.392 0 17.181 7.789 17.181 17.181s-7.789 17.181-17.181 17.181zM365.387 703.427h-36.653c-9.392 0-17.181-7.789-17.181-17.181s7.789-17.181 17.181-17.181h36.653c9.392 0 17.181 7.789 17.181 17.181s-7.789 17.181-17.181 17.181zM438.694 669.065h329.879c9.392 0 17.181 7.789 17.181 17.181s-7.789 17.181-17.181 17.181h-329.879c-9.392 0-17.181-7.789-17.181-17.181s7.789-17.181 17.181-17.181zM365.387 611.794h-36.653c-9.392 0-17.181-7.789-17.181-17.181s7.789-17.181 17.181-17.181h36.653c9.392 0 17.181 7.789 17.181 17.181s-7.789 17.181-17.181 17.181zM841.879 611.794h-403.186c-9.392 0-17.181-7.789-17.181-17.181s7.789-17.181 17.181-17.181h403.186c9.392 0 17.181 7.789 17.181 17.181s-7.789 17.181-17.181 17.181zM365.387 520.161h-36.653c-9.392 0-17.181-7.789-17.181-17.181s7.789-17.181 17.181-17.181h36.653c9.392 0 17.181 7.789 17.181 17.181s-7.789 17.181-17.181 17.181zM438.694 485.799h366.532c9.392 0 17.181 7.789 17.181 17.181s-7.789 17.181-17.181 17.181h-366.532c-9.392 0-17.181-7.789-17.181-17.181s7.789-17.181 17.181-17.181zM365.387 428.528h-36.653c-9.392 0-17.181-7.789-17.181-17.181s7.789-17.181 17.181-17.181h36.653c9.392 0 17.181 7.789 17.181 17.181s-7.789 17.181-17.181 17.181zM438.694 394.166h293.226c9.392 0 17.181 7.789 17.181 17.181s-7.789 17.181-17.181 17.181h-293.226c-9.392 0-17.181-7.789-17.181-17.181s7.789-17.181 17.181-17.181zM365.387 336.895h-36.653c-9.392 0-17.181-7.789-17.181-17.181s7.789-17.181 17.181-17.181h36.653c9.392 0 17.181 7.789 17.181 17.181s-7.789 17.181-17.181 17.181zM841.879 336.895h-403.186c-9.392 0-17.181-7.789-17.181-17.181s7.789-17.181 17.181-17.181h403.186c9.392 0 17.181 7.789 17.181 17.181s-7.789 17.181-17.181 17.181zM365.387 245.262h-36.653c-9.392 0-17.181-7.789-17.181-17.181s7.789-17.181 17.181-17.181h36.653c9.392 0 17.181 7.789 17.181 17.181s-7.789 17.181-17.181 17.181zM786.899 245.262h-348.206c-9.392 0-17.181-7.789-17.181-17.181s7.789-17.181 17.181-17.181h348.206c9.392 0 17.181 7.789 17.181 17.181s-7.789 17.181-17.181 17.181z" />
<glyph unicode="&#xe911;" glyph-name="bell" horiz-adv-x="896" d="M896 96v32l-128 128v224.002c-0.016 130.415-78.046 242.602-192 293.246v58.752c0 70.692-57.308 128-128 128s-128-57.308-128-128v-58.752l-2.036-0.81c-111.918-49.834-189.949-162.022-189.964-292.438v-224l-128-128v-32l32-32h288c0-70.692 57.308-128 128-128s128 57.308 128 128h288l32 32zM448 896v0c35.346 0 64-28.654 64-64h-128c0 35.346 28.654 64 64 64zM0 256h896v-64h-896v64z" />
<glyph unicode="&#xe912;" glyph-name="loupe" d="M678.4 960.512c-0.114 0-0.249 0-0.384 0-191.082 0-345.984-154.902-345.984-345.984s154.902-345.984 345.984-345.984c191.037 0 345.911 154.829 345.984 345.849v0.007c0 0.038 0 0.083 0 0.128 0 190.947-154.683 345.765-345.579 345.984h-0.021zM678.4 357.312c-0.019 0-0.042 0-0.064 0-142.092 0-257.28 115.188-257.28 257.28s115.188 257.28 257.28 257.28c142.092 0 257.28-115.188 257.28-257.28 0-0.068 0-0.135 0-0.203v0.011c-0.255-141.941-115.27-256.934-257.195-257.152h-0.021zM303.616 302.592l-290.816-290.816c-7.838-7.993-12.675-18.953-12.675-31.043 0-24.495 19.857-44.352 44.352-44.352 12.090 0 23.050 4.837 31.050 12.682l290.809 290.745c8.034 8.034 13.003 19.133 13.003 31.392 0 24.519-19.876 44.395-44.395 44.395-12.259 0-23.358-4.969-31.392-13.003v0z" />
<glyph unicode="&#xe913;" glyph-name="bookmark-fill" d="M768 960h-469.334c-82.346 0-149.332-66.986-149.332-149.334v-853.334c0-8.618 5.206-16.426 13.184-19.712 2.646-1.11 5.418-1.622 8.15-1.622 5.546 0 11.008 2.176 15.104 6.23l241.024 241.024c95.658-94.422 227.798-225.578 236.758-235.35 2.646-5.334 7.382-9.43 13.354-11.094 9.174-2.56 18.986 1.238 24.022 9.43 2.218 3.584 3.242 7.766 3.072 11.904v895.192c0 35.286 28.714 64 64 64 11.776 0 21.334-9.558 21.334-21.334s-9.56-21.334-21.336-21.334c-11.734 0-21.334-9.558-21.334-21.334v-64h106.668c11.776 0 21.334 9.558 21.334 21.334v42.668c-0.002 58.794-47.83 106.666-106.668 106.666z" />
<glyph unicode="&#xe914;" glyph-name="bookmark" d="M768 960h-469.334c-82.346 0-149.332-66.986-149.332-149.334v-853.334c0-8.618 5.206-16.426 13.184-19.712 2.602-1.11 5.418-1.622 8.15-1.622 5.546 0 11.008 2.176 15.104 6.23l240.982 241.024c94.294-93.056 224.214-221.952 238.166-237.738 3.030-4.608 7.85-7.978 13.61-9.088 10.112-1.962 20.054 3.414 23.894 12.842 1.11 2.688 2.048 4.906 1.45 8.064l0.128 896c0 35.286 28.714 64 64 64 11.776 0 21.334 9.558 21.334 21.334s-9.56 21.334-21.336 21.334zM661.29 853.334v-843.434c-36.31 37.718-102.144 102.656-219.648 218.582-8.362 8.234-21.76 8.192-30.080-0.086l-219.562-219.564v801.834c0 58.794 47.83 106.666 106.666 106.666h384c-13.396-17.834-21.376-39.978-21.376-63.998zM768 960c-11.776 0-21.334-9.558-21.334-21.334s9.558-21.332 21.334-21.332c35.286 0 64-28.714 64-64v-21.334h-149.334c-11.776 0-21.334-9.558-21.334-21.334s9.558-21.334 21.334-21.334h170.666c11.776 0 21.334 9.558 21.334 21.334v42.668c0 58.794-47.828 106.666-106.666 106.666z" />
<glyph unicode="&#xe915;" glyph-name="checked" d="M11.815 408.615c-7.877 7.877-11.815 19.692-11.815 27.569s3.938 19.692 11.815 27.569l55.138 55.138c15.754 15.754 39.385 15.754 55.138 0l3.938-3.938 216.615-232.369c7.877-7.877 19.692-7.877 27.569 0l527.754 547.446h3.938c15.754 15.754 39.385 15.754 55.138 0l55.138-55.138c15.754-15.754 15.754-39.385 0-55.138v0l-630.154-653.785c-7.877-7.877-15.754-11.815-27.569-11.815s-19.692 3.938-27.569 11.815l-307.2 330.831-7.877 11.815z" />
<glyph unicode="&#xe916;" glyph-name="film" d="M418.568 866.568c-231.167 0-418.568-187.401-418.568-418.568s187.401-418.568 418.568-418.568c231.17 0 418.568 187.401 418.568 418.568s-187.397 418.568-418.568 418.568zM589.375 647.432c41.762 24.11 95.157 9.801 119.268-31.957 24.11-41.762 9.801-95.157-31.957-119.268-41.762-24.11-95.157-9.804-119.268 31.957s-9.804 95.157 31.957 119.268zM247.761 248.568c-41.762-24.11-95.157-9.804-119.268 31.957s-9.801 95.157 31.957 119.271c41.762 24.11 95.157 9.801 119.268-31.957 24.114-41.762 9.804-95.161-31.957-119.271zM279.721 528.164c-24.11-41.762-77.509-56.068-119.268-31.957-41.762 24.11-56.068 77.509-31.957 119.268 24.11 41.762 77.509 56.068 119.268 31.957s56.068-77.506 31.957-119.268zM418.568 113.050c-48.221 0-87.311 39.090-87.311 87.311s39.090 87.311 87.311 87.311 87.311-39.090 87.311-87.311-39.090-87.311-87.311-87.311zM351.183 448c0 37.217 30.168 67.385 67.385 67.385s67.385-30.168 67.385-67.385c0-37.217-30.168-67.385-67.385-67.385-37.213 0-67.385 30.168-67.385 67.385zM418.568 608.329c-48.221 0-87.311 39.090-87.311 87.311s39.090 87.311 87.311 87.311 87.311-39.090 87.311-87.311-39.090-87.311-87.311-87.311zM708.642 280.525c-24.11-41.762-77.509-56.068-119.268-31.957-41.762 24.11-56.068 77.509-31.957 119.268 24.11 41.762 77.509 56.068 119.268 31.957 41.762-24.11 56.068-77.506 31.957-119.268zM896.188 168.468c-23.777-40.613-52.648-78.035-86.354-111.738-7.958-7.958-16.145-15.616-24.508-23.032h238.67v134.77h-127.809z" />
<glyph unicode="&#xe917;" glyph-name="friends" d="M469.241 283.513c-5.167 1.696-37.591 34.988-17.316 97.588h-0.276c52.857 55.263 98.1 144.173 98.1 231.781 0 134.587-93.051 205.155-195.53 205.155-102.558 0-191.507-70.568-191.507-205.155 0-87.924 41.457-177.188 94.59-232.412 20.709-55.145-16.33-94.038-24.101-96.957-107.291-39.366-233.201-111.236-233.201-182.119 0-19.131 0-7.534 0-26.586 0-96.602 184.486-118.573 355.244-118.573 170.956 0 353.154 21.971 353.154 118.573 0 19.013 0 7.416 0 26.586 0 73.053-126.541 144.291-239.157 182.119zM799.122 460.978c-4.812 1.617-35.343 9.072-16.291 67.964h-0.237c49.701 51.91 83.979 135.613 83.979 217.856 0 126.58-79.285 192.927-175.61 192.927-70.923 0-132.023-36.211-159.438-105.635 57.551-47.532 97.154-121.531 97.154-221.17 0-106.384-49.859-203.459-102.006-266.098 83.072-31.438 212.886-94.669 250.044-191.31 130.88 7.258 247.283 34.436 247.283 109.303 0 17.869 0 6.982 0 24.969-0.039 68.635-119.006 135.652-224.878 171.193z" />
<glyph unicode="&#xe918;" glyph-name="bookmark-book" d="M895.99 704c-11.776 0-21.334-9.558-21.334-21.334v-704h-651.902c-50.73 0-73.43 42.838-73.43 85.334v725.334c0 11.776-9.558 21.334-21.334 21.334s-21.334-9.558-21.334-21.334v-725.334c0-74.154 48.81-128 116.096-128h673.238c11.776 0 21.334 9.558 21.334 21.334v725.332c0 11.776-9.558 21.334-21.334 21.334zM911.094 923.562c6.102 6.102 7.936 15.274 4.608 23.254-3.284 7.978-11.092 13.184-19.712 13.184h-651.904c-73.216 0-137.428-59.818-137.428-128v-42.666c0-68.182 64.214-128 137.43-128h97.238c11.776 0 21.334 9.558 21.334 21.334s-9.56 21.332-21.336 21.332h-97.238c-49.578 0-94.762 40.662-94.762 85.334v42.666c0 44.672 45.184 85.334 94.762 85.334h611.328c-30.208-61.056-30.208-152.278 0-213.334h-258.090c-11.776 0-21.334-9.558-21.334-21.334s9.558-21.334 21.334-21.334h298.666c8.618 0 16.426 5.206 19.712 13.142 3.328 7.978 1.494 17.152-4.608 23.254-47.488 47.488-47.488 178.346 0 225.834zM853.324 832h-618.666c-11.776 0-21.334-9.558-21.334-21.334s9.558-21.334 21.334-21.334h618.666c11.776 0 21.334 9.558 21.334 21.334s-9.558 21.334-21.334 21.334zM597.324 832c-11.776 0-21.334-9.558-21.376-21.334v-460.502l-91.562 91.562c-8.32 8.32-21.846 8.32-30.166 0l-91.562-91.562v460.502c0 11.776-9.558 21.334-21.334 21.334s-21.334-9.558-21.334-21.334v-512c0-8.618 5.206-16.426 13.184-19.67 7.978-3.328 17.152-1.494 23.254 4.608l112.896 112.896 112.896-112.938c4.096-4.054 9.558-6.23 15.104-6.23 2.73 0 5.504 0.512 8.15 1.622 7.978 3.286 13.184 11.094 13.184 19.712v512c0 11.776-9.558 21.334-21.334 21.334z" />
</font>
</defs>
</svg>
